<?xml version="1.0" encoding="UTF-8" standalone="no"?>
<!DOCTYPE svg PUBLIC "-//W3C//DTD SVG 1.1//EN"
 "http://www.w3.org/Graphics/SVG/1.1/DTD/svg11.dtd">
<!-- Generated by graphviz version 2.38.0 (20140413.2041)
 -->
<!-- Title: %3 Pages: 1 -->
<svg width="247pt" height="186pt"
 viewBox="0.00 0.00 246.79 185.68" xmlns="http://www.w3.org/2000/svg" xmlns:xlink="http://www.w3.org/1999/xlink">
<g id="graph0" class="graph" transform="scale(1 1) rotate(0) translate(4 181.681)">
<title>%3</title>
<polygon fill="white" stroke="none" points="-4,4 -4,-181.681 242.792,-181.681 242.792,4 -4,4"/>
<!-- In0 -->
<g id="node1" class="node"><title>In0</title>
<polygon fill="lightgray" stroke="black" points="183.079,-177.681 154.079,-177.681 154.079,-159.681 183.079,-159.681 183.079,-177.681"/>
<text text-anchor="middle" x="168.579" y="-166.481" font-family="Times New Roman,serif" font-size="9.00">In0</text>
</g>
<!-- act1 -->
<g id="node5" class="node"><title>act1</title>
<ellipse fill="lightblue" stroke="black" cx="46.5789" cy="-22.6274" rx="22.7556" ry="22.7556"/>
<text text-anchor="middle" x="46.5789" y="-20.4274" font-family="Times New Roman,serif" font-size="9.00">act1</text>
</g>
<!-- In0&#45;&gt;act1 -->
<g id="edge1" class="edge"><title>In0&#45;&gt;act1</title>
<path fill="none" stroke="green" stroke-width="0.712243" stroke-dasharray="1,5" d="M153.836,-165.915C117.551,-161.234 25.5569,-147.232 7.57888,-123.681 -9.89811,-100.787 7.92268,-69.0864 24.8029,-47.5464"/>
<polygon fill="green" stroke="green" stroke-width="0.712243" points="27.7335,-49.4936 31.3906,-39.55 22.3308,-45.0427 27.7335,-49.4936"/>
</g>
<!-- act2 -->
<g id="node6" class="node"><title>act2</title>
<ellipse fill="lightblue" stroke="black" cx="125.579" cy="-22.6274" rx="22.7556" ry="22.7556"/>
<text text-anchor="middle" x="125.579" y="-20.4274" font-family="Times New Roman,serif" font-size="9.00">act2</text>
</g>
<!-- In0&#45;&gt;act2 -->
<g id="edge2" class="edge"><title>In0&#45;&gt;act2</title>
<path fill="none" stroke="red" stroke-width="0.505759" stroke-dasharray="1,5" d="M167.274,-159.452C164.702,-143.935 158.451,-109.386 149.579,-81.2548 146.587,-71.7668 142.654,-61.6735 138.841,-52.6289"/>
<polygon fill="red" stroke="red" stroke-width="0.505759" points="141.988,-51.0881 134.8,-43.3045 135.565,-53.8717 141.988,-51.0881"/>
</g>
<!-- 522 -->
<g id="node7" class="node"><title>522</title>
<ellipse fill="white" stroke="black" cx="217.579" cy="-102.468" rx="21.4286" ry="21.4286"/>
<text text-anchor="middle" x="217.579" y="-100.268" font-family="Times New Roman,serif" font-size="9.00">522</text>
</g>
<!-- In0&#45;&gt;522 -->
<g id="edge9" class="edge"><title>In0&#45;&gt;522</title>
<path fill="none" stroke="green" stroke-width="0.212834" d="M174.785,-159.549C180.818,-151.642 190.29,-139.229 198.791,-128.089"/>
<polygon fill="green" stroke="green" stroke-width="0.212834" points="201.745,-129.988 205.029,-119.915 196.18,-125.741 201.745,-129.988"/>
</g>
<!-- In1 -->
<g id="node2" class="node"><title>In1</title>
<polygon fill="lightgray" stroke="black" points="46.0789,-111.468 17.0789,-111.468 17.0789,-93.468 46.0789,-93.468 46.0789,-111.468"/>
<text text-anchor="middle" x="31.5789" y="-100.268" font-family="Times New Roman,serif" font-size="9.00">In1</text>
</g>
<!-- In1&#45;&gt;act1 -->
<g id="edge3" class="edge"><title>In1&#45;&gt;act1</title>
<path fill="none" stroke="green" stroke-width="0.201098" d="M33.1276,-93.4309C34.8865,-84.3038 37.8639,-68.8526 40.5711,-54.8041"/>
<polygon fill="green" stroke="green" stroke-width="0.201098" points="44.0177,-55.4147 42.4732,-44.9331 37.1442,-54.0901 44.0177,-55.4147"/>
</g>
<!-- In1&#45;&gt;act2 -->
<g id="edge4" class="edge"><title>In1&#45;&gt;act2</title>
<path fill="none" stroke="green" stroke-width="0.324891" d="M40.9065,-93.1232C45.0596,-89.446 50.0305,-85.0968 54.5789,-81.2548 69.5437,-68.6142 86.5772,-54.7711 100.209,-43.8213"/>
<polygon fill="green" stroke="green" stroke-width="0.324891" points="102.591,-46.3976 108.208,-37.4141 98.2146,-40.9342 102.591,-46.3976"/>
</g>
<!-- In3 -->
<g id="node3" class="node"><title>In3</title>
<polygon fill="lightgray" stroke="black" points="93.0789,-111.468 64.0789,-111.468 64.0789,-93.468 93.0789,-93.468 93.0789,-111.468"/>
<text text-anchor="middle" x="78.5789" y="-100.268" font-family="Times New Roman,serif" font-size="9.00">In3</text>
</g>
<!-- In3&#45;&gt;act1 -->
<g id="edge5" class="edge"><title>In3&#45;&gt;act1</title>
<path fill="none" stroke="green" stroke-width="0.261459" stroke-dasharray="1,5" d="M75.2748,-93.4309C71.4084,-84.0258 64.7815,-67.9056 58.8695,-53.5247"/>
<polygon fill="green" stroke="green" stroke-width="0.261459" points="61.973,-51.8686 54.9336,-43.9505 55.4988,-54.5302 61.973,-51.8686"/>
</g>
<!-- In3&#45;&gt;act2 -->
<g id="edge6" class="edge"><title>In3&#45;&gt;act2</title>
<path fill="none" stroke="green" stroke-width="0.337015" d="M83.4317,-93.4309C89.4139,-83.5233 99.8956,-66.1637 108.909,-51.2356"/>
<polygon fill="green" stroke="green" stroke-width="0.337015" points="112.106,-52.713 114.278,-42.3434 106.113,-49.0948 112.106,-52.713"/>
</g>
<!-- In4 -->
<g id="node4" class="node"><title>In4</title>
<polygon fill="lightgray" stroke="black" points="140.079,-111.468 111.079,-111.468 111.079,-93.468 140.079,-93.468 140.079,-111.468"/>
<text text-anchor="middle" x="125.579" y="-100.268" font-family="Times New Roman,serif" font-size="9.00">In4</text>
</g>
<!-- In4&#45;&gt;act1 -->
<g id="edge7" class="edge"><title>In4&#45;&gt;act1</title>
<path fill="none" stroke="green" stroke-width="0.181304" d="M117.422,-93.4309C106.31,-82.4817 85.961,-62.4316 69.9139,-46.6199"/>
<polygon fill="green" stroke="green" stroke-width="0.181304" points="72.0207,-43.7823 62.441,-39.2568 67.1077,-48.7685 72.0207,-43.7823"/>
</g>
<!-- In4&#45;&gt;act2 -->
<g id="edge8" class="edge"><title>In4&#45;&gt;act2</title>
<path fill="none" stroke="green" stroke-width="0.343635" d="M125.579,-93.4309C125.579,-84.4543 125.579,-69.3605 125.579,-55.5003"/>
<polygon fill="green" stroke="green" stroke-width="0.343635" points="129.079,-55.2635 125.579,-45.2635 122.079,-55.2635 129.079,-55.2635"/>
</g>
<!-- 522&#45;&gt;act2 -->
<g id="edge10" class="edge"><title>522&#45;&gt;act2</title>
<path fill="none" stroke="green" stroke-width="0.108017" d="M201.554,-87.9092C187.437,-75.9654 166.65,-58.3776 150.386,-44.6167"/>
<polygon fill="green" stroke="green" stroke-width="0.108017" points="152.248,-41.607 142.353,-37.8197 147.726,-46.9509 152.248,-41.607"/>
</g>
</g>
</svg>
