<?xml version="1.0" encoding="utf-8" standalone="no"?>
<!DOCTYPE svg PUBLIC "-//W3C//DTD SVG 1.1//EN"
  "http://www.w3.org/Graphics/SVG/1.1/DTD/svg11.dtd">
<!-- Created with matplotlib (http://matplotlib.org/) -->
<svg height="345pt" version="1.1" viewBox="0 0 460 345" width="460pt" xmlns="http://www.w3.org/2000/svg" xmlns:xlink="http://www.w3.org/1999/xlink">
 <defs>
  <style type="text/css">
*{stroke-linecap:butt;stroke-linejoin:round;}
  </style>
 </defs>
 <g id="figure_1">
  <g id="patch_1">
   <path d="M 0 345.6 
L 460.8 345.6 
L 460.8 0 
L 0 0 
z
" style="fill:#ffffff;"/>
  </g>
  <g id="axes_1">
   <g id="patch_2">
    <path d="M 57.6 307.584 
L 414.72 307.584 
L 414.72 41.472 
L 57.6 41.472 
z
" style="fill:#ffffff;"/>
   </g>
   <g id="matplotlib.axis_1">
    <g id="xtick_1">
     <g id="line2d_1">
      <path clip-path="url(#p7b5e4bba9d)" d="M 73.832727 307.584 
L 73.832727 41.472 
" style="fill:none;stroke:#b0b0b0;stroke-linecap:square;stroke-width:0.8;"/>
     </g>
     <g id="line2d_2">
      <defs>
       <path d="M 0 0 
L 0 3.5 
" id="mf34e8a0550" style="stroke:#000000;stroke-width:0.8;"/>
      </defs>
      <g>
       <use style="stroke:#000000;stroke-width:0.8;" x="73.832727" xlink:href="#mf34e8a0550" y="307.584"/>
      </g>
     </g>
     <g id="text_1">
      <!-- 0 -->
      <defs>
       <path d="M 31.78125 66.40625 
Q 24.171875 66.40625 20.328125 58.90625 
Q 16.5 51.421875 16.5 36.375 
Q 16.5 21.390625 20.328125 13.890625 
Q 24.171875 6.390625 31.78125 6.390625 
Q 39.453125 6.390625 43.28125 13.890625 
Q 47.125 21.390625 47.125 36.375 
Q 47.125 51.421875 43.28125 58.90625 
Q 39.453125 66.40625 31.78125 66.40625 
z
M 31.78125 74.21875 
Q 44.046875 74.21875 50.515625 64.515625 
Q 56.984375 54.828125 56.984375 36.375 
Q 56.984375 17.96875 50.515625 8.265625 
Q 44.046875 -1.421875 31.78125 -1.421875 
Q 19.53125 -1.421875 13.0625 8.265625 
Q 6.59375 17.96875 6.59375 36.375 
Q 6.59375 54.828125 13.0625 64.515625 
Q 19.53125 74.21875 31.78125 74.21875 
z
" id="DejaVuSans-30"/>
      </defs>
      <g transform="translate(70.651477 322.182437)scale(0.1 -0.1)">
       <use xlink:href="#DejaVuSans-30"/>
      </g>
     </g>
    </g>
    <g id="xtick_2">
     <g id="line2d_3">
      <path clip-path="url(#p7b5e4bba9d)" d="M 136.872445 307.584 
L 136.872445 41.472 
" style="fill:none;stroke:#b0b0b0;stroke-linecap:square;stroke-width:0.8;"/>
     </g>
     <g id="line2d_4">
      <g>
       <use style="stroke:#000000;stroke-width:0.8;" x="136.872445" xlink:href="#mf34e8a0550" y="307.584"/>
      </g>
     </g>
     <g id="text_2">
      <!-- 20 -->
      <defs>
       <path d="M 19.1875 8.296875 
L 53.609375 8.296875 
L 53.609375 0 
L 7.328125 0 
L 7.328125 8.296875 
Q 12.9375 14.109375 22.625 23.890625 
Q 32.328125 33.6875 34.8125 36.53125 
Q 39.546875 41.84375 41.421875 45.53125 
Q 43.3125 49.21875 43.3125 52.78125 
Q 43.3125 58.59375 39.234375 62.25 
Q 35.15625 65.921875 28.609375 65.921875 
Q 23.96875 65.921875 18.8125 64.3125 
Q 13.671875 62.703125 7.8125 59.421875 
L 7.8125 69.390625 
Q 13.765625 71.78125 18.9375 73 
Q 24.125 74.21875 28.421875 74.21875 
Q 39.75 74.21875 46.484375 68.546875 
Q 53.21875 62.890625 53.21875 53.421875 
Q 53.21875 48.921875 51.53125 44.890625 
Q 49.859375 40.875 45.40625 35.40625 
Q 44.1875 33.984375 37.640625 27.21875 
Q 31.109375 20.453125 19.1875 8.296875 
z
" id="DejaVuSans-32"/>
      </defs>
      <g transform="translate(130.509945 322.182437)scale(0.1 -0.1)">
       <use xlink:href="#DejaVuSans-32"/>
       <use x="63.623047" xlink:href="#DejaVuSans-30"/>
      </g>
     </g>
    </g>
    <g id="xtick_3">
     <g id="line2d_5">
      <path clip-path="url(#p7b5e4bba9d)" d="M 199.912162 307.584 
L 199.912162 41.472 
" style="fill:none;stroke:#b0b0b0;stroke-linecap:square;stroke-width:0.8;"/>
     </g>
     <g id="line2d_6">
      <g>
       <use style="stroke:#000000;stroke-width:0.8;" x="199.912162" xlink:href="#mf34e8a0550" y="307.584"/>
      </g>
     </g>
     <g id="text_3">
      <!-- 40 -->
      <defs>
       <path d="M 37.796875 64.3125 
L 12.890625 25.390625 
L 37.796875 25.390625 
z
M 35.203125 72.90625 
L 47.609375 72.90625 
L 47.609375 25.390625 
L 58.015625 25.390625 
L 58.015625 17.1875 
L 47.609375 17.1875 
L 47.609375 0 
L 37.796875 0 
L 37.796875 17.1875 
L 4.890625 17.1875 
L 4.890625 26.703125 
z
" id="DejaVuSans-34"/>
      </defs>
      <g transform="translate(193.549662 322.182437)scale(0.1 -0.1)">
       <use xlink:href="#DejaVuSans-34"/>
       <use x="63.623047" xlink:href="#DejaVuSans-30"/>
      </g>
     </g>
    </g>
    <g id="xtick_4">
     <g id="line2d_7">
      <path clip-path="url(#p7b5e4bba9d)" d="M 262.95188 307.584 
L 262.95188 41.472 
" style="fill:none;stroke:#b0b0b0;stroke-linecap:square;stroke-width:0.8;"/>
     </g>
     <g id="line2d_8">
      <g>
       <use style="stroke:#000000;stroke-width:0.8;" x="262.95188" xlink:href="#mf34e8a0550" y="307.584"/>
      </g>
     </g>
     <g id="text_4">
      <!-- 60 -->
      <defs>
       <path d="M 33.015625 40.375 
Q 26.375 40.375 22.484375 35.828125 
Q 18.609375 31.296875 18.609375 23.390625 
Q 18.609375 15.53125 22.484375 10.953125 
Q 26.375 6.390625 33.015625 6.390625 
Q 39.65625 6.390625 43.53125 10.953125 
Q 47.40625 15.53125 47.40625 23.390625 
Q 47.40625 31.296875 43.53125 35.828125 
Q 39.65625 40.375 33.015625 40.375 
z
M 52.59375 71.296875 
L 52.59375 62.3125 
Q 48.875 64.0625 45.09375 64.984375 
Q 41.3125 65.921875 37.59375 65.921875 
Q 27.828125 65.921875 22.671875 59.328125 
Q 17.53125 52.734375 16.796875 39.40625 
Q 19.671875 43.65625 24.015625 45.921875 
Q 28.375 48.1875 33.59375 48.1875 
Q 44.578125 48.1875 50.953125 41.515625 
Q 57.328125 34.859375 57.328125 23.390625 
Q 57.328125 12.15625 50.6875 5.359375 
Q 44.046875 -1.421875 33.015625 -1.421875 
Q 20.359375 -1.421875 13.671875 8.265625 
Q 6.984375 17.96875 6.984375 36.375 
Q 6.984375 53.65625 15.1875 63.9375 
Q 23.390625 74.21875 37.203125 74.21875 
Q 40.921875 74.21875 44.703125 73.484375 
Q 48.484375 72.75 52.59375 71.296875 
z
" id="DejaVuSans-36"/>
      </defs>
      <g transform="translate(256.58938 322.182437)scale(0.1 -0.1)">
       <use xlink:href="#DejaVuSans-36"/>
       <use x="63.623047" xlink:href="#DejaVuSans-30"/>
      </g>
     </g>
    </g>
    <g id="xtick_5">
     <g id="line2d_9">
      <path clip-path="url(#p7b5e4bba9d)" d="M 325.991598 307.584 
L 325.991598 41.472 
" style="fill:none;stroke:#b0b0b0;stroke-linecap:square;stroke-width:0.8;"/>
     </g>
     <g id="line2d_10">
      <g>
       <use style="stroke:#000000;stroke-width:0.8;" x="325.991598" xlink:href="#mf34e8a0550" y="307.584"/>
      </g>
     </g>
     <g id="text_5">
      <!-- 80 -->
      <defs>
       <path d="M 31.78125 34.625 
Q 24.75 34.625 20.71875 30.859375 
Q 16.703125 27.09375 16.703125 20.515625 
Q 16.703125 13.921875 20.71875 10.15625 
Q 24.75 6.390625 31.78125 6.390625 
Q 38.8125 6.390625 42.859375 10.171875 
Q 46.921875 13.96875 46.921875 20.515625 
Q 46.921875 27.09375 42.890625 30.859375 
Q 38.875 34.625 31.78125 34.625 
z
M 21.921875 38.8125 
Q 15.578125 40.375 12.03125 44.71875 
Q 8.5 49.078125 8.5 55.328125 
Q 8.5 64.0625 14.71875 69.140625 
Q 20.953125 74.21875 31.78125 74.21875 
Q 42.671875 74.21875 48.875 69.140625 
Q 55.078125 64.0625 55.078125 55.328125 
Q 55.078125 49.078125 51.53125 44.71875 
Q 48 40.375 41.703125 38.8125 
Q 48.828125 37.15625 52.796875 32.3125 
Q 56.78125 27.484375 56.78125 20.515625 
Q 56.78125 9.90625 50.3125 4.234375 
Q 43.84375 -1.421875 31.78125 -1.421875 
Q 19.734375 -1.421875 13.25 4.234375 
Q 6.78125 9.90625 6.78125 20.515625 
Q 6.78125 27.484375 10.78125 32.3125 
Q 14.796875 37.15625 21.921875 38.8125 
z
M 18.3125 54.390625 
Q 18.3125 48.734375 21.84375 45.5625 
Q 25.390625 42.390625 31.78125 42.390625 
Q 38.140625 42.390625 41.71875 45.5625 
Q 45.3125 48.734375 45.3125 54.390625 
Q 45.3125 60.0625 41.71875 63.234375 
Q 38.140625 66.40625 31.78125 66.40625 
Q 25.390625 66.40625 21.84375 63.234375 
Q 18.3125 60.0625 18.3125 54.390625 
z
" id="DejaVuSans-38"/>
      </defs>
      <g transform="translate(319.629098 322.182437)scale(0.1 -0.1)">
       <use xlink:href="#DejaVuSans-38"/>
       <use x="63.623047" xlink:href="#DejaVuSans-30"/>
      </g>
     </g>
    </g>
    <g id="xtick_6">
     <g id="line2d_11">
      <path clip-path="url(#p7b5e4bba9d)" d="M 389.031315 307.584 
L 389.031315 41.472 
" style="fill:none;stroke:#b0b0b0;stroke-linecap:square;stroke-width:0.8;"/>
     </g>
     <g id="line2d_12">
      <g>
       <use style="stroke:#000000;stroke-width:0.8;" x="389.031315" xlink:href="#mf34e8a0550" y="307.584"/>
      </g>
     </g>
     <g id="text_6">
      <!-- 100 -->
      <defs>
       <path d="M 12.40625 8.296875 
L 28.515625 8.296875 
L 28.515625 63.921875 
L 10.984375 60.40625 
L 10.984375 69.390625 
L 28.421875 72.90625 
L 38.28125 72.90625 
L 38.28125 8.296875 
L 54.390625 8.296875 
L 54.390625 0 
L 12.40625 0 
z
" id="DejaVuSans-31"/>
      </defs>
      <g transform="translate(379.487565 322.182437)scale(0.1 -0.1)">
       <use xlink:href="#DejaVuSans-31"/>
       <use x="63.623047" xlink:href="#DejaVuSans-30"/>
       <use x="127.246094" xlink:href="#DejaVuSans-30"/>
      </g>
     </g>
    </g>
    <g id="text_7">
     <!-- Generations -->
     <defs>
      <path d="M 59.515625 10.40625 
L 59.515625 29.984375 
L 43.40625 29.984375 
L 43.40625 38.09375 
L 69.28125 38.09375 
L 69.28125 6.78125 
Q 63.578125 2.734375 56.6875 0.65625 
Q 49.8125 -1.421875 42 -1.421875 
Q 24.90625 -1.421875 15.25 8.5625 
Q 5.609375 18.5625 5.609375 36.375 
Q 5.609375 54.25 15.25 64.234375 
Q 24.90625 74.21875 42 74.21875 
Q 49.125 74.21875 55.546875 72.453125 
Q 61.96875 70.703125 67.390625 67.28125 
L 67.390625 56.78125 
Q 61.921875 61.421875 55.765625 63.765625 
Q 49.609375 66.109375 42.828125 66.109375 
Q 29.4375 66.109375 22.71875 58.640625 
Q 16.015625 51.171875 16.015625 36.375 
Q 16.015625 21.625 22.71875 14.15625 
Q 29.4375 6.6875 42.828125 6.6875 
Q 48.046875 6.6875 52.140625 7.59375 
Q 56.25 8.5 59.515625 10.40625 
z
" id="DejaVuSans-47"/>
      <path d="M 56.203125 29.59375 
L 56.203125 25.203125 
L 14.890625 25.203125 
Q 15.484375 15.921875 20.484375 11.0625 
Q 25.484375 6.203125 34.421875 6.203125 
Q 39.59375 6.203125 44.453125 7.46875 
Q 49.3125 8.734375 54.109375 11.28125 
L 54.109375 2.78125 
Q 49.265625 0.734375 44.1875 -0.34375 
Q 39.109375 -1.421875 33.890625 -1.421875 
Q 20.796875 -1.421875 13.15625 6.1875 
Q 5.515625 13.8125 5.515625 26.8125 
Q 5.515625 40.234375 12.765625 48.109375 
Q 20.015625 56 32.328125 56 
Q 43.359375 56 49.78125 48.890625 
Q 56.203125 41.796875 56.203125 29.59375 
z
M 47.21875 32.234375 
Q 47.125 39.59375 43.09375 43.984375 
Q 39.0625 48.390625 32.421875 48.390625 
Q 24.90625 48.390625 20.390625 44.140625 
Q 15.875 39.890625 15.1875 32.171875 
z
" id="DejaVuSans-65"/>
      <path d="M 54.890625 33.015625 
L 54.890625 0 
L 45.90625 0 
L 45.90625 32.71875 
Q 45.90625 40.484375 42.875 44.328125 
Q 39.84375 48.1875 33.796875 48.1875 
Q 26.515625 48.1875 22.3125 43.546875 
Q 18.109375 38.921875 18.109375 30.90625 
L 18.109375 0 
L 9.078125 0 
L 9.078125 54.6875 
L 18.109375 54.6875 
L 18.109375 46.1875 
Q 21.34375 51.125 25.703125 53.5625 
Q 30.078125 56 35.796875 56 
Q 45.21875 56 50.046875 50.171875 
Q 54.890625 44.34375 54.890625 33.015625 
z
" id="DejaVuSans-6e"/>
      <path d="M 41.109375 46.296875 
Q 39.59375 47.171875 37.8125 47.578125 
Q 36.03125 48 33.890625 48 
Q 26.265625 48 22.1875 43.046875 
Q 18.109375 38.09375 18.109375 28.8125 
L 18.109375 0 
L 9.078125 0 
L 9.078125 54.6875 
L 18.109375 54.6875 
L 18.109375 46.1875 
Q 20.953125 51.171875 25.484375 53.578125 
Q 30.03125 56 36.53125 56 
Q 37.453125 56 38.578125 55.875 
Q 39.703125 55.765625 41.0625 55.515625 
z
" id="DejaVuSans-72"/>
      <path d="M 34.28125 27.484375 
Q 23.390625 27.484375 19.1875 25 
Q 14.984375 22.515625 14.984375 16.5 
Q 14.984375 11.71875 18.140625 8.90625 
Q 21.296875 6.109375 26.703125 6.109375 
Q 34.1875 6.109375 38.703125 11.40625 
Q 43.21875 16.703125 43.21875 25.484375 
L 43.21875 27.484375 
z
M 52.203125 31.203125 
L 52.203125 0 
L 43.21875 0 
L 43.21875 8.296875 
Q 40.140625 3.328125 35.546875 0.953125 
Q 30.953125 -1.421875 24.3125 -1.421875 
Q 15.921875 -1.421875 10.953125 3.296875 
Q 6 8.015625 6 15.921875 
Q 6 25.140625 12.171875 29.828125 
Q 18.359375 34.515625 30.609375 34.515625 
L 43.21875 34.515625 
L 43.21875 35.40625 
Q 43.21875 41.609375 39.140625 45 
Q 35.0625 48.390625 27.6875 48.390625 
Q 23 48.390625 18.546875 47.265625 
Q 14.109375 46.140625 10.015625 43.890625 
L 10.015625 52.203125 
Q 14.9375 54.109375 19.578125 55.046875 
Q 24.21875 56 28.609375 56 
Q 40.484375 56 46.34375 49.84375 
Q 52.203125 43.703125 52.203125 31.203125 
z
" id="DejaVuSans-61"/>
      <path d="M 18.3125 70.21875 
L 18.3125 54.6875 
L 36.8125 54.6875 
L 36.8125 47.703125 
L 18.3125 47.703125 
L 18.3125 18.015625 
Q 18.3125 11.328125 20.140625 9.421875 
Q 21.96875 7.515625 27.59375 7.515625 
L 36.8125 7.515625 
L 36.8125 0 
L 27.59375 0 
Q 17.1875 0 13.234375 3.875 
Q 9.28125 7.765625 9.28125 18.015625 
L 9.28125 47.703125 
L 2.6875 47.703125 
L 2.6875 54.6875 
L 9.28125 54.6875 
L 9.28125 70.21875 
z
" id="DejaVuSans-74"/>
      <path d="M 9.421875 54.6875 
L 18.40625 54.6875 
L 18.40625 0 
L 9.421875 0 
z
M 9.421875 75.984375 
L 18.40625 75.984375 
L 18.40625 64.59375 
L 9.421875 64.59375 
z
" id="DejaVuSans-69"/>
      <path d="M 30.609375 48.390625 
Q 23.390625 48.390625 19.1875 42.75 
Q 14.984375 37.109375 14.984375 27.296875 
Q 14.984375 17.484375 19.15625 11.84375 
Q 23.34375 6.203125 30.609375 6.203125 
Q 37.796875 6.203125 41.984375 11.859375 
Q 46.1875 17.53125 46.1875 27.296875 
Q 46.1875 37.015625 41.984375 42.703125 
Q 37.796875 48.390625 30.609375 48.390625 
z
M 30.609375 56 
Q 42.328125 56 49.015625 48.375 
Q 55.71875 40.765625 55.71875 27.296875 
Q 55.71875 13.875 49.015625 6.21875 
Q 42.328125 -1.421875 30.609375 -1.421875 
Q 18.84375 -1.421875 12.171875 6.21875 
Q 5.515625 13.875 5.515625 27.296875 
Q 5.515625 40.765625 12.171875 48.375 
Q 18.84375 56 30.609375 56 
z
" id="DejaVuSans-6f"/>
      <path d="M 44.28125 53.078125 
L 44.28125 44.578125 
Q 40.484375 46.53125 36.375 47.5 
Q 32.28125 48.484375 27.875 48.484375 
Q 21.1875 48.484375 17.84375 46.4375 
Q 14.5 44.390625 14.5 40.28125 
Q 14.5 37.15625 16.890625 35.375 
Q 19.28125 33.59375 26.515625 31.984375 
L 29.59375 31.296875 
Q 39.15625 29.25 43.1875 25.515625 
Q 47.21875 21.78125 47.21875 15.09375 
Q 47.21875 7.46875 41.1875 3.015625 
Q 35.15625 -1.421875 24.609375 -1.421875 
Q 20.21875 -1.421875 15.453125 -0.5625 
Q 10.6875 0.296875 5.421875 2 
L 5.421875 11.28125 
Q 10.40625 8.6875 15.234375 7.390625 
Q 20.0625 6.109375 24.8125 6.109375 
Q 31.15625 6.109375 34.5625 8.28125 
Q 37.984375 10.453125 37.984375 14.40625 
Q 37.984375 18.0625 35.515625 20.015625 
Q 33.0625 21.96875 24.703125 23.78125 
L 21.578125 24.515625 
Q 13.234375 26.265625 9.515625 29.90625 
Q 5.8125 33.546875 5.8125 39.890625 
Q 5.8125 47.609375 11.28125 51.796875 
Q 16.75 56 26.8125 56 
Q 31.78125 56 36.171875 55.265625 
Q 40.578125 54.546875 44.28125 53.078125 
z
" id="DejaVuSans-73"/>
     </defs>
     <g transform="translate(205.662344 335.860562)scale(0.1 -0.1)">
      <use xlink:href="#DejaVuSans-47"/>
      <use x="77.490234" xlink:href="#DejaVuSans-65"/>
      <use x="139.013672" xlink:href="#DejaVuSans-6e"/>
      <use x="202.392578" xlink:href="#DejaVuSans-65"/>
      <use x="263.916016" xlink:href="#DejaVuSans-72"/>
      <use x="305.029297" xlink:href="#DejaVuSans-61"/>
      <use x="366.308594" xlink:href="#DejaVuSans-74"/>
      <use x="405.517578" xlink:href="#DejaVuSans-69"/>
      <use x="433.300781" xlink:href="#DejaVuSans-6f"/>
      <use x="494.482422" xlink:href="#DejaVuSans-6e"/>
      <use x="557.861328" xlink:href="#DejaVuSans-73"/>
     </g>
    </g>
   </g>
   <g id="matplotlib.axis_2">
    <g id="ytick_1">
     <g id="line2d_13">
      <path clip-path="url(#p7b5e4bba9d)" d="M 57.6 280.501732 
L 414.72 280.501732 
" style="fill:none;stroke:#b0b0b0;stroke-linecap:square;stroke-width:0.8;"/>
     </g>
     <g id="line2d_14">
      <defs>
       <path d="M 0 0 
L -3.5 0 
" id="m2d91be6cfa" style="stroke:#000000;stroke-width:0.8;"/>
      </defs>
      <g>
       <use style="stroke:#000000;stroke-width:0.8;" x="57.6" xlink:href="#m2d91be6cfa" y="280.501732"/>
      </g>
     </g>
     <g id="text_8">
      <!-- 2.0 -->
      <defs>
       <path d="M 10.6875 12.40625 
L 21 12.40625 
L 21 0 
L 10.6875 0 
z
" id="DejaVuSans-2e"/>
      </defs>
      <g transform="translate(34.696875 284.300951)scale(0.1 -0.1)">
       <use xlink:href="#DejaVuSans-32"/>
       <use x="63.623047" xlink:href="#DejaVuSans-2e"/>
       <use x="95.410156" xlink:href="#DejaVuSans-30"/>
      </g>
     </g>
    </g>
    <g id="ytick_2">
     <g id="line2d_15">
      <path clip-path="url(#p7b5e4bba9d)" d="M 57.6 223.130518 
L 414.72 223.130518 
" style="fill:none;stroke:#b0b0b0;stroke-linecap:square;stroke-width:0.8;"/>
     </g>
     <g id="line2d_16">
      <g>
       <use style="stroke:#000000;stroke-width:0.8;" x="57.6" xlink:href="#m2d91be6cfa" y="223.130518"/>
      </g>
     </g>
     <g id="text_9">
      <!-- 2.5 -->
      <defs>
       <path d="M 10.796875 72.90625 
L 49.515625 72.90625 
L 49.515625 64.59375 
L 19.828125 64.59375 
L 19.828125 46.734375 
Q 21.96875 47.46875 24.109375 47.828125 
Q 26.265625 48.1875 28.421875 48.1875 
Q 40.625 48.1875 47.75 41.5 
Q 54.890625 34.8125 54.890625 23.390625 
Q 54.890625 11.625 47.5625 5.09375 
Q 40.234375 -1.421875 26.90625 -1.421875 
Q 22.3125 -1.421875 17.546875 -0.640625 
Q 12.796875 0.140625 7.71875 1.703125 
L 7.71875 11.625 
Q 12.109375 9.234375 16.796875 8.0625 
Q 21.484375 6.890625 26.703125 6.890625 
Q 35.15625 6.890625 40.078125 11.328125 
Q 45.015625 15.765625 45.015625 23.390625 
Q 45.015625 31 40.078125 35.4375 
Q 35.15625 39.890625 26.703125 39.890625 
Q 22.75 39.890625 18.8125 39.015625 
Q 14.890625 38.140625 10.796875 36.28125 
z
" id="DejaVuSans-35"/>
      </defs>
      <g transform="translate(34.696875 226.929737)scale(0.1 -0.1)">
       <use xlink:href="#DejaVuSans-32"/>
       <use x="63.623047" xlink:href="#DejaVuSans-2e"/>
       <use x="95.410156" xlink:href="#DejaVuSans-35"/>
      </g>
     </g>
    </g>
    <g id="ytick_3">
     <g id="line2d_17">
      <path clip-path="url(#p7b5e4bba9d)" d="M 57.6 165.759303 
L 414.72 165.759303 
" style="fill:none;stroke:#b0b0b0;stroke-linecap:square;stroke-width:0.8;"/>
     </g>
     <g id="line2d_18">
      <g>
       <use style="stroke:#000000;stroke-width:0.8;" x="57.6" xlink:href="#m2d91be6cfa" y="165.759303"/>
      </g>
     </g>
     <g id="text_10">
      <!-- 3.0 -->
      <defs>
       <path d="M 40.578125 39.3125 
Q 47.65625 37.796875 51.625 33 
Q 55.609375 28.21875 55.609375 21.1875 
Q 55.609375 10.40625 48.1875 4.484375 
Q 40.765625 -1.421875 27.09375 -1.421875 
Q 22.515625 -1.421875 17.65625 -0.515625 
Q 12.796875 0.390625 7.625 2.203125 
L 7.625 11.71875 
Q 11.71875 9.328125 16.59375 8.109375 
Q 21.484375 6.890625 26.8125 6.890625 
Q 36.078125 6.890625 40.9375 10.546875 
Q 45.796875 14.203125 45.796875 21.1875 
Q 45.796875 27.640625 41.28125 31.265625 
Q 36.765625 34.90625 28.71875 34.90625 
L 20.21875 34.90625 
L 20.21875 43.015625 
L 29.109375 43.015625 
Q 36.375 43.015625 40.234375 45.921875 
Q 44.09375 48.828125 44.09375 54.296875 
Q 44.09375 59.90625 40.109375 62.90625 
Q 36.140625 65.921875 28.71875 65.921875 
Q 24.65625 65.921875 20.015625 65.03125 
Q 15.375 64.15625 9.8125 62.3125 
L 9.8125 71.09375 
Q 15.4375 72.65625 20.34375 73.4375 
Q 25.25 74.21875 29.59375 74.21875 
Q 40.828125 74.21875 47.359375 69.109375 
Q 53.90625 64.015625 53.90625 55.328125 
Q 53.90625 49.265625 50.4375 45.09375 
Q 46.96875 40.921875 40.578125 39.3125 
z
" id="DejaVuSans-33"/>
      </defs>
      <g transform="translate(34.696875 169.558522)scale(0.1 -0.1)">
       <use xlink:href="#DejaVuSans-33"/>
       <use x="63.623047" xlink:href="#DejaVuSans-2e"/>
       <use x="95.410156" xlink:href="#DejaVuSans-30"/>
      </g>
     </g>
    </g>
    <g id="ytick_4">
     <g id="line2d_19">
      <path clip-path="url(#p7b5e4bba9d)" d="M 57.6 108.388089 
L 414.72 108.388089 
" style="fill:none;stroke:#b0b0b0;stroke-linecap:square;stroke-width:0.8;"/>
     </g>
     <g id="line2d_20">
      <g>
       <use style="stroke:#000000;stroke-width:0.8;" x="57.6" xlink:href="#m2d91be6cfa" y="108.388089"/>
      </g>
     </g>
     <g id="text_11">
      <!-- 3.5 -->
      <g transform="translate(34.696875 112.187308)scale(0.1 -0.1)">
       <use xlink:href="#DejaVuSans-33"/>
       <use x="63.623047" xlink:href="#DejaVuSans-2e"/>
       <use x="95.410156" xlink:href="#DejaVuSans-35"/>
      </g>
     </g>
    </g>
    <g id="ytick_5">
     <g id="line2d_21">
      <path clip-path="url(#p7b5e4bba9d)" d="M 57.6 51.016874 
L 414.72 51.016874 
" style="fill:none;stroke:#b0b0b0;stroke-linecap:square;stroke-width:0.8;"/>
     </g>
     <g id="line2d_22">
      <g>
       <use style="stroke:#000000;stroke-width:0.8;" x="57.6" xlink:href="#m2d91be6cfa" y="51.016874"/>
      </g>
     </g>
     <g id="text_12">
      <!-- 4.0 -->
      <g transform="translate(34.696875 54.816093)scale(0.1 -0.1)">
       <use xlink:href="#DejaVuSans-34"/>
       <use x="63.623047" xlink:href="#DejaVuSans-2e"/>
       <use x="95.410156" xlink:href="#DejaVuSans-30"/>
      </g>
     </g>
    </g>
    <g id="text_13">
     <!-- Fitness -->
     <defs>
      <path d="M 9.8125 72.90625 
L 51.703125 72.90625 
L 51.703125 64.59375 
L 19.671875 64.59375 
L 19.671875 43.109375 
L 48.578125 43.109375 
L 48.578125 34.8125 
L 19.671875 34.8125 
L 19.671875 0 
L 9.8125 0 
z
" id="DejaVuSans-46"/>
     </defs>
     <g transform="translate(28.617187 192.202219)rotate(-90)scale(0.1 -0.1)">
      <use xlink:href="#DejaVuSans-46"/>
      <use x="57.410156" xlink:href="#DejaVuSans-69"/>
      <use x="85.193359" xlink:href="#DejaVuSans-74"/>
      <use x="124.402344" xlink:href="#DejaVuSans-6e"/>
      <use x="187.78125" xlink:href="#DejaVuSans-65"/>
      <use x="249.304688" xlink:href="#DejaVuSans-73"/>
      <use x="301.404297" xlink:href="#DejaVuSans-73"/>
     </g>
    </g>
   </g>
   <g id="line2d_23">
    <path clip-path="url(#p7b5e4bba9d)" d="M 73.832727 253.689763 
L 76.984713 236.849492 
L 80.136699 239.835854 
L 83.288685 242.585306 
L 86.440671 240.45932 
L 89.592657 246.048554 
L 92.744643 251.048639 
L 95.896628 251.618906 
L 99.048614 246.960082 
L 102.2006 251.120973 
L 105.352586 248.803617 
L 108.504572 243.522911 
L 111.656558 245.324599 
L 114.808544 248.211924 
L 117.96053 242.405372 
L 121.112515 243.362553 
L 124.264501 236.328909 
L 127.416487 223.921222 
L 130.568473 212.430117 
L 133.720459 230.379917 
L 136.872445 226.239545 
L 140.024431 222.831107 
L 143.176417 236.703799 
L 146.328402 233.11906 
L 149.480388 231.928367 
L 152.632374 233.60653 
L 155.78436 232.243238 
L 158.936346 219.254385 
L 162.088332 222.584409 
L 165.240318 217.19552 
L 168.392304 225.113978 
L 171.544289 227.75741 
L 174.696275 223.750846 
L 177.848261 215.335829 
L 181.000247 223.941033 
L 184.152233 223.613864 
L 187.304219 212.570027 
L 190.456205 216.830522 
L 193.608191 217.366367 
L 196.760177 224.506739 
L 199.912162 218.969893 
L 203.064148 214.806643 
L 206.216134 216.76248 
L 209.36812 218.69694 
L 212.520106 211.908698 
L 215.672092 207.131381 
L 218.824078 210.900226 
L 221.976064 214.379037 
L 225.128049 199.973414 
L 228.280035 217.574976 
L 231.432021 217.848554 
L 234.584007 228.501222 
L 237.735993 211.720957 
L 240.887979 217.620872 
L 244.039965 208.085695 
L 247.191951 217.239588 
L 250.343936 216.060602 
L 253.495922 219.218475 
L 256.647908 223.542833 
L 259.799894 216.147593 
L 262.95188 216.418897 
L 266.103866 219.204487 
L 269.255852 211.491444 
L 272.407838 214.556252 
L 275.559823 221.209599 
L 278.711809 213.5919 
L 281.863795 217.761544 
L 285.015781 220.018494 
L 288.167767 207.827045 
L 291.319753 209.448065 
L 294.471739 217.990456 
L 297.623725 218.459012 
L 300.775711 218.848442 
L 303.927696 219.28128 
L 307.079682 214.690267 
L 310.231668 221.465548 
L 313.383654 210.168532 
L 316.53564 212.005192 
L 319.687626 212.317979 
L 322.839612 222.729647 
L 325.991598 219.379702 
L 329.143583 218.661681 
L 332.295569 215.308791 
L 335.447555 210.718384 
L 338.599541 210.631158 
L 341.751527 210.512597 
L 344.903513 214.765113 
L 348.055499 223.182865 
L 351.207485 216.64385 
L 354.35947 207.940895 
L 357.511456 205.509117 
L 360.663442 212.816839 
L 363.815428 218.148802 
L 366.967414 223.601607 
L 370.1194 224.720847 
L 373.271386 218.07847 
L 376.423372 211.931926 
L 379.575357 214.064807 
L 382.727343 209.447135 
L 385.879329 218.004619 
L 389.031315 214.574616 
L 392.183301 212.102362 
L 395.335287 220.671942 
L 398.487273 225.140424 
" style="fill:none;stroke:#0000ff;stroke-linecap:square;stroke-width:1.5;"/>
   </g>
   <g id="line2d_24">
    <path clip-path="url(#p7b5e4bba9d)" d="M 73.832727 295.488 
L 76.984713 274.423031 
L 80.136699 277.112959 
L 83.288685 279.018639 
L 86.440671 277.291724 
L 89.592657 283.46656 
L 92.744643 289.037475 
L 95.896628 290.330754 
L 99.048614 281.881834 
L 102.2006 287.926076 
L 105.352586 283.357497 
L 108.504572 282.189943 
L 111.656558 286.64722 
L 114.808544 285.06781 
L 117.96053 284.949824 
L 121.112515 285.112358 
L 124.264501 282.807833 
L 127.416487 269.860087 
L 130.568473 262.00065 
L 133.720459 283.169648 
L 136.872445 277.633768 
L 140.024431 275.98571 
L 143.176417 287.053159 
L 146.328402 286.964342 
L 149.480388 287.625428 
L 152.632374 287.861971 
L 155.78436 287.092317 
L 158.936346 276.452541 
L 162.088332 277.885592 
L 165.240318 272.813974 
L 168.392304 282.027983 
L 171.544289 284.129189 
L 174.696275 281.527074 
L 177.848261 271.478077 
L 181.000247 280.938731 
L 184.152233 279.554865 
L 187.304219 268.070397 
L 190.456205 273.653599 
L 193.608191 272.980592 
L 196.760177 279.803917 
L 199.912162 274.50392 
L 203.064148 271.418368 
L 206.216134 272.83781 
L 209.36812 274.897257 
L 212.520106 266.91404 
L 215.672092 261.663258 
L 218.824078 266.056092 
L 221.976064 270.578502 
L 225.128049 251.53615 
L 228.280035 275.898596 
L 231.432021 278.236644 
L 234.584007 284.284038 
L 237.735993 266.232109 
L 240.887979 273.972302 
L 244.039965 258.640907 
L 247.191951 270.155681 
L 250.343936 267.772551 
L 253.495922 272.20618 
L 256.647908 276.424027 
L 259.799894 268.194215 
L 262.95188 271.243682 
L 266.103866 272.342748 
L 269.255852 262.59731 
L 272.407838 267.010113 
L 275.559823 277.326336 
L 278.711809 265.490797 
L 281.863795 270.967086 
L 285.015781 272.919836 
L 288.167767 258.287082 
L 291.319753 260.770256 
L 294.471739 271.707232 
L 297.623725 269.730971 
L 300.775711 272.116685 
L 303.927696 273.400013 
L 307.079682 267.849149 
L 310.231668 276.382208 
L 313.383654 262.738063 
L 316.53564 263.891953 
L 319.687626 265.684525 
L 322.839612 277.760252 
L 325.991598 272.75814 
L 329.143583 274.203292 
L 332.295569 270.092472 
L 335.447555 265.109657 
L 338.599541 264.973249 
L 341.751527 263.267963 
L 344.903513 269.651517 
L 348.055499 279.542154 
L 351.207485 272.235269 
L 354.35947 260.677721 
L 357.511456 260.060615 
L 360.663442 267.885419 
L 363.815428 272.188018 
L 366.967414 275.479106 
L 370.1194 280.137026 
L 373.271386 271.053011 
L 376.423372 264.908223 
L 379.575357 273.376451 
L 382.727343 264.35562 
L 385.879329 276.89964 
L 389.031315 270.870697 
L 392.183301 269.361739 
L 395.335287 277.963925 
L 398.487273 284.949639 
" style="fill:none;stroke:#008000;stroke-dasharray:9.6,2.4,1.5,2.4;stroke-dashoffset:0;stroke-width:1.5;"/>
   </g>
   <g id="line2d_25">
    <path clip-path="url(#p7b5e4bba9d)" d="M 73.832727 211.891526 
L 76.984713 199.275953 
L 80.136699 202.55875 
L 83.288685 206.151972 
L 86.440671 203.626916 
L 89.592657 208.630548 
L 92.744643 213.059803 
L 95.896628 212.907058 
L 99.048614 212.038331 
L 102.2006 214.31587 
L 105.352586 214.249737 
L 108.504572 204.855879 
L 111.656558 204.001979 
L 114.808544 211.356038 
L 117.96053 199.860921 
L 121.112515 201.612747 
L 124.264501 189.849984 
L 127.416487 177.982357 
L 130.568473 162.859584 
L 133.720459 177.590185 
L 136.872445 174.845323 
L 140.024431 169.676503 
L 143.176417 186.35444 
L 146.328402 179.273778 
L 149.480388 176.231306 
L 152.632374 179.351089 
L 155.78436 177.394159 
L 158.936346 162.056229 
L 162.088332 167.283226 
L 165.240318 161.577066 
L 168.392304 168.199973 
L 171.544289 171.38563 
L 174.696275 165.974617 
L 177.848261 159.193581 
L 181.000247 166.943334 
L 184.152233 167.672863 
L 187.304219 157.069656 
L 190.456205 160.007444 
L 193.608191 161.752141 
L 196.760177 169.209562 
L 199.912162 163.435867 
L 203.064148 158.194918 
L 206.216134 160.68715 
L 209.36812 162.496623 
L 212.520106 156.903355 
L 215.672092 152.599505 
L 218.824078 155.74436 
L 221.976064 158.179571 
L 225.128049 148.410677 
L 228.280035 159.251355 
L 231.432021 157.460465 
L 234.584007 172.718406 
L 237.735993 157.209804 
L 240.887979 161.269443 
L 244.039965 157.530482 
L 247.191951 164.323496 
L 250.343936 164.348654 
L 253.495922 166.230771 
L 256.647908 170.661638 
L 259.799894 164.10097 
L 262.95188 161.594112 
L 266.103866 166.066226 
L 269.255852 160.385578 
L 272.407838 162.102391 
L 275.559823 165.092863 
L 278.711809 161.693003 
L 281.863795 164.556001 
L 285.015781 167.117153 
L 288.167767 157.367009 
L 291.319753 158.125874 
L 294.471739 164.27368 
L 297.623725 167.187053 
L 300.775711 165.580199 
L 303.927696 165.162547 
L 307.079682 161.531385 
L 310.231668 166.548888 
L 313.383654 157.599002 
L 316.53564 160.118431 
L 319.687626 158.951433 
L 322.839612 167.699042 
L 325.991598 166.001265 
L 329.143583 163.120071 
L 332.295569 160.525111 
L 335.447555 156.327111 
L 338.599541 156.289067 
L 341.751527 157.75723 
L 344.903513 159.878708 
L 348.055499 166.823575 
L 351.207485 161.052431 
L 354.35947 155.204069 
L 357.511456 150.957619 
L 360.663442 157.74826 
L 363.815428 164.109587 
L 366.967414 171.724108 
L 370.1194 169.304668 
L 373.271386 165.103929 
L 376.423372 158.95563 
L 379.575357 154.753164 
L 382.727343 154.53865 
L 385.879329 159.109598 
L 389.031315 158.278536 
L 392.183301 154.842984 
L 395.335287 163.379959 
L 398.487273 165.331209 
" style="fill:none;stroke:#008000;stroke-dasharray:9.6,2.4,1.5,2.4;stroke-dashoffset:0;stroke-width:1.5;"/>
   </g>
   <g id="line2d_26">
    <path clip-path="url(#p7b5e4bba9d)" d="M 73.832727 166.389595 
L 76.984713 166.389595 
L 80.136699 165.840396 
L 83.288685 165.840396 
L 86.440671 165.840396 
L 89.592657 165.840396 
L 92.744643 165.840396 
L 95.896628 165.807017 
L 99.048614 165.807017 
L 102.2006 165.807017 
L 105.352586 165.807017 
L 108.504572 165.807017 
L 111.656558 165.759718 
L 114.808544 165.759718 
L 117.96053 165.759718 
L 121.112515 165.75952 
L 124.264501 165.75952 
L 127.416487 165.75952 
L 130.568473 165.75952 
L 133.720459 165.759319 
L 136.872445 165.759307 
L 140.024431 165.759305 
L 143.176417 165.759305 
L 146.328402 165.759304 
L 149.480388 165.759303 
L 152.632374 165.759303 
L 155.78436 165.759303 
L 158.936346 165.759303 
L 162.088332 165.759303 
L 165.240318 165.759303 
L 168.392304 165.759303 
L 171.544289 165.759303 
L 174.696275 165.759303 
L 177.848261 165.759303 
L 181.000247 165.759303 
L 184.152233 165.759303 
L 187.304219 165.759303 
L 190.456205 165.759303 
L 193.608191 165.759303 
L 196.760177 165.759303 
L 199.912162 165.759303 
L 203.064148 165.759303 
L 206.216134 165.759303 
L 209.36812 165.759303 
L 212.520106 165.759303 
L 215.672092 165.759303 
L 218.824078 165.759303 
L 221.976064 165.759303 
L 225.128049 165.759303 
L 228.280035 165.759303 
L 231.432021 165.759303 
L 234.584007 165.759303 
L 237.735993 165.759303 
L 240.887979 165.759303 
L 244.039965 165.759303 
L 247.191951 165.759303 
L 250.343936 165.759303 
L 253.495922 165.759303 
L 256.647908 165.759303 
L 259.799894 165.759303 
L 262.95188 165.759303 
L 266.103866 165.759303 
L 269.255852 146.586143 
L 272.407838 146.586143 
L 275.559823 146.586143 
L 278.711809 146.586143 
L 281.863795 146.586143 
L 285.015781 146.586143 
L 288.167767 146.586143 
L 291.319753 146.586143 
L 294.471739 139.640213 
L 297.623725 139.640213 
L 300.775711 139.640213 
L 303.927696 126.510125 
L 307.079682 126.510125 
L 310.231668 126.510125 
L 313.383654 126.510125 
L 316.53564 126.510125 
L 319.687626 126.510125 
L 322.839612 125.213523 
L 325.991598 125.213523 
L 329.143583 125.213523 
L 332.295569 120.243205 
L 335.447555 120.243205 
L 338.599541 112.825162 
L 341.751527 112.825162 
L 344.903513 112.825162 
L 348.055499 112.825162 
L 351.207485 112.825162 
L 354.35947 109.542846 
L 357.511456 108.654126 
L 360.663442 108.654126 
L 363.815428 108.654126 
L 366.967414 108.654126 
L 370.1194 108.654126 
L 373.271386 108.654126 
L 376.423372 108.654126 
L 379.575357 108.654126 
L 382.727343 101.914168 
L 385.879329 101.914168 
L 389.031315 101.914168 
L 392.183301 84.516036 
L 395.335287 84.516036 
L 398.487273 53.568 
" style="fill:none;stroke:#ff0000;stroke-linecap:square;stroke-width:1.5;"/>
   </g>
   <g id="patch_3">
    <path d="M 57.6 307.584 
L 57.6 41.472 
" style="fill:none;stroke:#000000;stroke-linecap:square;stroke-linejoin:miter;stroke-width:0.8;"/>
   </g>
   <g id="patch_4">
    <path d="M 414.72 307.584 
L 414.72 41.472 
" style="fill:none;stroke:#000000;stroke-linecap:square;stroke-linejoin:miter;stroke-width:0.8;"/>
   </g>
   <g id="patch_5">
    <path d="M 57.6 307.584 
L 414.72 307.584 
" style="fill:none;stroke:#000000;stroke-linecap:square;stroke-linejoin:miter;stroke-width:0.8;"/>
   </g>
   <g id="patch_6">
    <path d="M 57.6 41.472 
L 414.72 41.472 
" style="fill:none;stroke:#000000;stroke-linecap:square;stroke-linejoin:miter;stroke-width:0.8;"/>
   </g>
   <g id="text_14">
    <!-- Population's average and best fitness -->
    <defs>
     <path d="M 19.671875 64.796875 
L 19.671875 37.40625 
L 32.078125 37.40625 
Q 38.96875 37.40625 42.71875 40.96875 
Q 46.484375 44.53125 46.484375 51.125 
Q 46.484375 57.671875 42.71875 61.234375 
Q 38.96875 64.796875 32.078125 64.796875 
z
M 9.8125 72.90625 
L 32.078125 72.90625 
Q 44.34375 72.90625 50.609375 67.359375 
Q 56.890625 61.8125 56.890625 51.125 
Q 56.890625 40.328125 50.609375 34.8125 
Q 44.34375 29.296875 32.078125 29.296875 
L 19.671875 29.296875 
L 19.671875 0 
L 9.8125 0 
z
" id="DejaVuSans-50"/>
     <path d="M 18.109375 8.203125 
L 18.109375 -20.796875 
L 9.078125 -20.796875 
L 9.078125 54.6875 
L 18.109375 54.6875 
L 18.109375 46.390625 
Q 20.953125 51.265625 25.265625 53.625 
Q 29.59375 56 35.59375 56 
Q 45.5625 56 51.78125 48.09375 
Q 58.015625 40.1875 58.015625 27.296875 
Q 58.015625 14.40625 51.78125 6.484375 
Q 45.5625 -1.421875 35.59375 -1.421875 
Q 29.59375 -1.421875 25.265625 0.953125 
Q 20.953125 3.328125 18.109375 8.203125 
z
M 48.6875 27.296875 
Q 48.6875 37.203125 44.609375 42.84375 
Q 40.53125 48.484375 33.40625 48.484375 
Q 26.265625 48.484375 22.1875 42.84375 
Q 18.109375 37.203125 18.109375 27.296875 
Q 18.109375 17.390625 22.1875 11.75 
Q 26.265625 6.109375 33.40625 6.109375 
Q 40.53125 6.109375 44.609375 11.75 
Q 48.6875 17.390625 48.6875 27.296875 
z
" id="DejaVuSans-70"/>
     <path d="M 8.5 21.578125 
L 8.5 54.6875 
L 17.484375 54.6875 
L 17.484375 21.921875 
Q 17.484375 14.15625 20.5 10.265625 
Q 23.53125 6.390625 29.59375 6.390625 
Q 36.859375 6.390625 41.078125 11.03125 
Q 45.3125 15.671875 45.3125 23.6875 
L 45.3125 54.6875 
L 54.296875 54.6875 
L 54.296875 0 
L 45.3125 0 
L 45.3125 8.40625 
Q 42.046875 3.421875 37.71875 1 
Q 33.40625 -1.421875 27.6875 -1.421875 
Q 18.265625 -1.421875 13.375 4.4375 
Q 8.5 10.296875 8.5 21.578125 
z
M 31.109375 56 
z
" id="DejaVuSans-75"/>
     <path d="M 9.421875 75.984375 
L 18.40625 75.984375 
L 18.40625 0 
L 9.421875 0 
z
" id="DejaVuSans-6c"/>
     <path d="M 17.921875 72.90625 
L 17.921875 45.796875 
L 9.625 45.796875 
L 9.625 72.90625 
z
" id="DejaVuSans-27"/>
     <path id="DejaVuSans-20"/>
     <path d="M 2.984375 54.6875 
L 12.5 54.6875 
L 29.59375 8.796875 
L 46.6875 54.6875 
L 56.203125 54.6875 
L 35.6875 0 
L 23.484375 0 
z
" id="DejaVuSans-76"/>
     <path d="M 45.40625 27.984375 
Q 45.40625 37.75 41.375 43.109375 
Q 37.359375 48.484375 30.078125 48.484375 
Q 22.859375 48.484375 18.828125 43.109375 
Q 14.796875 37.75 14.796875 27.984375 
Q 14.796875 18.265625 18.828125 12.890625 
Q 22.859375 7.515625 30.078125 7.515625 
Q 37.359375 7.515625 41.375 12.890625 
Q 45.40625 18.265625 45.40625 27.984375 
z
M 54.390625 6.78125 
Q 54.390625 -7.171875 48.1875 -13.984375 
Q 42 -20.796875 29.203125 -20.796875 
Q 24.46875 -20.796875 20.265625 -20.09375 
Q 16.0625 -19.390625 12.109375 -17.921875 
L 12.109375 -9.1875 
Q 16.0625 -11.328125 19.921875 -12.34375 
Q 23.78125 -13.375 27.78125 -13.375 
Q 36.625 -13.375 41.015625 -8.765625 
Q 45.40625 -4.15625 45.40625 5.171875 
L 45.40625 9.625 
Q 42.625 4.78125 38.28125 2.390625 
Q 33.9375 0 27.875 0 
Q 17.828125 0 11.671875 7.65625 
Q 5.515625 15.328125 5.515625 27.984375 
Q 5.515625 40.671875 11.671875 48.328125 
Q 17.828125 56 27.875 56 
Q 33.9375 56 38.28125 53.609375 
Q 42.625 51.21875 45.40625 46.390625 
L 45.40625 54.6875 
L 54.390625 54.6875 
z
" id="DejaVuSans-67"/>
     <path d="M 45.40625 46.390625 
L 45.40625 75.984375 
L 54.390625 75.984375 
L 54.390625 0 
L 45.40625 0 
L 45.40625 8.203125 
Q 42.578125 3.328125 38.25 0.953125 
Q 33.9375 -1.421875 27.875 -1.421875 
Q 17.96875 -1.421875 11.734375 6.484375 
Q 5.515625 14.40625 5.515625 27.296875 
Q 5.515625 40.1875 11.734375 48.09375 
Q 17.96875 56 27.875 56 
Q 33.9375 56 38.25 53.625 
Q 42.578125 51.265625 45.40625 46.390625 
z
M 14.796875 27.296875 
Q 14.796875 17.390625 18.875 11.75 
Q 22.953125 6.109375 30.078125 6.109375 
Q 37.203125 6.109375 41.296875 11.75 
Q 45.40625 17.390625 45.40625 27.296875 
Q 45.40625 37.203125 41.296875 42.84375 
Q 37.203125 48.484375 30.078125 48.484375 
Q 22.953125 48.484375 18.875 42.84375 
Q 14.796875 37.203125 14.796875 27.296875 
z
" id="DejaVuSans-64"/>
     <path d="M 48.6875 27.296875 
Q 48.6875 37.203125 44.609375 42.84375 
Q 40.53125 48.484375 33.40625 48.484375 
Q 26.265625 48.484375 22.1875 42.84375 
Q 18.109375 37.203125 18.109375 27.296875 
Q 18.109375 17.390625 22.1875 11.75 
Q 26.265625 6.109375 33.40625 6.109375 
Q 40.53125 6.109375 44.609375 11.75 
Q 48.6875 17.390625 48.6875 27.296875 
z
M 18.109375 46.390625 
Q 20.953125 51.265625 25.265625 53.625 
Q 29.59375 56 35.59375 56 
Q 45.5625 56 51.78125 48.09375 
Q 58.015625 40.1875 58.015625 27.296875 
Q 58.015625 14.40625 51.78125 6.484375 
Q 45.5625 -1.421875 35.59375 -1.421875 
Q 29.59375 -1.421875 25.265625 0.953125 
Q 20.953125 3.328125 18.109375 8.203125 
L 18.109375 0 
L 9.078125 0 
L 9.078125 75.984375 
L 18.109375 75.984375 
z
" id="DejaVuSans-62"/>
     <path d="M 37.109375 75.984375 
L 37.109375 68.5 
L 28.515625 68.5 
Q 23.6875 68.5 21.796875 66.546875 
Q 19.921875 64.59375 19.921875 59.515625 
L 19.921875 54.6875 
L 34.71875 54.6875 
L 34.71875 47.703125 
L 19.921875 47.703125 
L 19.921875 0 
L 10.890625 0 
L 10.890625 47.703125 
L 2.296875 47.703125 
L 2.296875 54.6875 
L 10.890625 54.6875 
L 10.890625 58.5 
Q 10.890625 67.625 15.140625 71.796875 
Q 19.390625 75.984375 28.609375 75.984375 
z
" id="DejaVuSans-66"/>
    </defs>
    <g transform="translate(123.315 35.472)scale(0.12 -0.12)">
     <use xlink:href="#DejaVuSans-50"/>
     <use x="60.255859" xlink:href="#DejaVuSans-6f"/>
     <use x="121.4375" xlink:href="#DejaVuSans-70"/>
     <use x="184.914062" xlink:href="#DejaVuSans-75"/>
     <use x="248.292969" xlink:href="#DejaVuSans-6c"/>
     <use x="276.076172" xlink:href="#DejaVuSans-61"/>
     <use x="337.355469" xlink:href="#DejaVuSans-74"/>
     <use x="376.564453" xlink:href="#DejaVuSans-69"/>
     <use x="404.347656" xlink:href="#DejaVuSans-6f"/>
     <use x="465.529297" xlink:href="#DejaVuSans-6e"/>
     <use x="528.908203" xlink:href="#DejaVuSans-27"/>
     <use x="556.398438" xlink:href="#DejaVuSans-73"/>
     <use x="608.498047" xlink:href="#DejaVuSans-20"/>
     <use x="640.285156" xlink:href="#DejaVuSans-61"/>
     <use x="701.564453" xlink:href="#DejaVuSans-76"/>
     <use x="760.744141" xlink:href="#DejaVuSans-65"/>
     <use x="822.267578" xlink:href="#DejaVuSans-72"/>
     <use x="863.380859" xlink:href="#DejaVuSans-61"/>
     <use x="924.660156" xlink:href="#DejaVuSans-67"/>
     <use x="988.136719" xlink:href="#DejaVuSans-65"/>
     <use x="1049.660156" xlink:href="#DejaVuSans-20"/>
     <use x="1081.447266" xlink:href="#DejaVuSans-61"/>
     <use x="1142.726562" xlink:href="#DejaVuSans-6e"/>
     <use x="1206.105469" xlink:href="#DejaVuSans-64"/>
     <use x="1269.582031" xlink:href="#DejaVuSans-20"/>
     <use x="1301.369141" xlink:href="#DejaVuSans-62"/>
     <use x="1364.845703" xlink:href="#DejaVuSans-65"/>
     <use x="1426.369141" xlink:href="#DejaVuSans-73"/>
     <use x="1478.46875" xlink:href="#DejaVuSans-74"/>
     <use x="1517.677734" xlink:href="#DejaVuSans-20"/>
     <use x="1549.464844" xlink:href="#DejaVuSans-66"/>
     <use x="1584.669922" xlink:href="#DejaVuSans-69"/>
     <use x="1612.453125" xlink:href="#DejaVuSans-74"/>
     <use x="1651.662109" xlink:href="#DejaVuSans-6e"/>
     <use x="1715.041016" xlink:href="#DejaVuSans-65"/>
     <use x="1776.564453" xlink:href="#DejaVuSans-73"/>
     <use x="1828.664062" xlink:href="#DejaVuSans-73"/>
    </g>
   </g>
   <g id="legend_1">
    <g id="patch_7">
     <path d="M 64.6 108.1845 
L 137.540625 108.1845 
Q 139.540625 108.1845 139.540625 106.1845 
L 139.540625 48.472 
Q 139.540625 46.472 137.540625 46.472 
L 64.6 46.472 
Q 62.6 46.472 62.6 48.472 
L 62.6 106.1845 
Q 62.6 108.1845 64.6 108.1845 
z
" style="fill:#ffffff;opacity:0.8;stroke:#cccccc;stroke-linejoin:miter;"/>
    </g>
    <g id="line2d_27">
     <path d="M 66.6 54.570438 
L 86.6 54.570438 
" style="fill:none;stroke:#0000ff;stroke-linecap:square;stroke-width:1.5;"/>
    </g>
    <g id="line2d_28"/>
    <g id="text_15">
     <!-- average -->
     <g transform="translate(94.6 58.070438)scale(0.1 -0.1)">
      <use xlink:href="#DejaVuSans-61"/>
      <use x="61.279297" xlink:href="#DejaVuSans-76"/>
      <use x="120.458984" xlink:href="#DejaVuSans-65"/>
      <use x="181.982422" xlink:href="#DejaVuSans-72"/>
      <use x="223.095703" xlink:href="#DejaVuSans-61"/>
      <use x="284.375" xlink:href="#DejaVuSans-67"/>
      <use x="347.851562" xlink:href="#DejaVuSans-65"/>
     </g>
    </g>
    <g id="line2d_29">
     <path d="M 66.6 69.248563 
L 86.6 69.248563 
" style="fill:none;stroke:#008000;stroke-dasharray:9.6,2.4,1.5,2.4;stroke-dashoffset:0;stroke-width:1.5;"/>
    </g>
    <g id="line2d_30"/>
    <g id="text_16">
     <!-- -1 sd -->
     <defs>
      <path d="M 4.890625 31.390625 
L 31.203125 31.390625 
L 31.203125 23.390625 
L 4.890625 23.390625 
z
" id="DejaVuSans-2d"/>
     </defs>
     <g transform="translate(94.6 72.748563)scale(0.1 -0.1)">
      <use xlink:href="#DejaVuSans-2d"/>
      <use x="36.083984" xlink:href="#DejaVuSans-31"/>
      <use x="99.707031" xlink:href="#DejaVuSans-20"/>
      <use x="131.494141" xlink:href="#DejaVuSans-73"/>
      <use x="183.59375" xlink:href="#DejaVuSans-64"/>
     </g>
    </g>
    <g id="line2d_31">
     <path d="M 66.6 83.926688 
L 86.6 83.926688 
" style="fill:none;stroke:#008000;stroke-dasharray:9.6,2.4,1.5,2.4;stroke-dashoffset:0;stroke-width:1.5;"/>
    </g>
    <g id="line2d_32"/>
    <g id="text_17">
     <!-- +1 sd -->
     <defs>
      <path d="M 46 62.703125 
L 46 35.5 
L 73.1875 35.5 
L 73.1875 27.203125 
L 46 27.203125 
L 46 0 
L 37.796875 0 
L 37.796875 27.203125 
L 10.59375 27.203125 
L 10.59375 35.5 
L 37.796875 35.5 
L 37.796875 62.703125 
z
" id="DejaVuSans-2b"/>
     </defs>
     <g transform="translate(94.6 87.426688)scale(0.1 -0.1)">
      <use xlink:href="#DejaVuSans-2b"/>
      <use x="83.789062" xlink:href="#DejaVuSans-31"/>
      <use x="147.412109" xlink:href="#DejaVuSans-20"/>
      <use x="179.199219" xlink:href="#DejaVuSans-73"/>
      <use x="231.298828" xlink:href="#DejaVuSans-64"/>
     </g>
    </g>
    <g id="line2d_33">
     <path d="M 66.6 98.604813 
L 86.6 98.604813 
" style="fill:none;stroke:#ff0000;stroke-linecap:square;stroke-width:1.5;"/>
    </g>
    <g id="line2d_34"/>
    <g id="text_18">
     <!-- best -->
     <g transform="translate(94.6 102.104813)scale(0.1 -0.1)">
      <use xlink:href="#DejaVuSans-62"/>
      <use x="63.476562" xlink:href="#DejaVuSans-65"/>
      <use x="125" xlink:href="#DejaVuSans-73"/>
      <use x="177.099609" xlink:href="#DejaVuSans-74"/>
     </g>
    </g>
   </g>
  </g>
 </g>
 <defs>
  <clipPath id="p7b5e4bba9d">
   <rect height="266.112" width="357.12" x="57.6" y="41.472"/>
  </clipPath>
 </defs>
</svg>
