<?xml version="1.0" encoding="UTF-8" standalone="no"?>
<!DOCTYPE svg PUBLIC "-//W3C//DTD SVG 1.1//EN"
 "http://www.w3.org/Graphics/SVG/1.1/DTD/svg11.dtd">
<!-- Generated by graphviz version 2.38.0 (20140413.2041)
 -->
<!-- Title: %3 Pages: 1 -->
<svg width="176pt" height="222pt"
 viewBox="0.00 0.00 176.25 222.45" xmlns="http://www.w3.org/2000/svg" xmlns:xlink="http://www.w3.org/1999/xlink">
<g id="graph0" class="graph" transform="scale(1 1) rotate(0) translate(4 218.451)">
<title>%3</title>
<polygon fill="white" stroke="none" points="-4,4 -4,-218.451 172.249,-218.451 172.249,4 -4,4"/>
<!-- A -->
<g id="node1" class="node"><title>A</title>
<polygon fill="lightgray" stroke="black" points="23,-214.451 0,-214.451 0,-196.451 23,-196.451 23,-214.451"/>
<text text-anchor="middle" x="11.5" y="-203.251" font-family="Times New Roman,serif" font-size="9.00">A</text>
</g>
<!-- A XOR B -->
<g id="node3" class="node"><title>A XOR B</title>
<ellipse fill="lightblue" stroke="black" cx="37.5" cy="-37.4767" rx="37.4533" ry="37.4533"/>
<text text-anchor="middle" x="37.5" y="-35.2767" font-family="Times New Roman,serif" font-size="9.00">A XOR B</text>
</g>
<!-- A&#45;&gt;A XOR B -->
<g id="edge4" class="edge"><title>A&#45;&gt;A XOR B</title>
<path fill="none" stroke="red" stroke-width="0.342393" d="M9.1765,-196.337C4.84787,-179.979 -3.41169,-141.961 3.5,-110.953 5.86023,-100.365 9.94199,-89.4953 14.4761,-79.5007"/>
<polygon fill="red" stroke="red" stroke-width="0.342393" points="17.7562,-80.7547 18.9203,-70.224 11.4433,-77.7303 17.7562,-80.7547"/>
</g>
<!-- 1485 -->
<g id="node4" class="node"><title>1485</title>
<ellipse fill="white" stroke="black" cx="37.5" cy="-135.702" rx="25" ry="25"/>
<text text-anchor="middle" x="37.5" y="-133.502" font-family="Times New Roman,serif" font-size="9.00">1485</text>
</g>
<!-- A&#45;&gt;1485 -->
<g id="edge1" class="edge"><title>A&#45;&gt;1485</title>
<path fill="none" stroke="green" stroke-width="0.584226" d="M14.5846,-196.413C17.2829,-189.382 21.3843,-178.695 25.3752,-168.296"/>
<polygon fill="green" stroke="green" stroke-width="0.584226" points="28.6505,-169.53 28.9658,-158.94 22.1152,-167.022 28.6505,-169.53"/>
</g>
<!-- B -->
<g id="node2" class="node"><title>B</title>
<polygon fill="lightgray" stroke="black" points="102,-214.451 79,-214.451 79,-196.451 102,-196.451 102,-214.451"/>
<text text-anchor="middle" x="90.5" y="-203.251" font-family="Times New Roman,serif" font-size="9.00">B</text>
</g>
<!-- B&#45;&gt;A XOR B -->
<g id="edge6" class="edge"><title>B&#45;&gt;A XOR B</title>
<path fill="none" stroke="green" stroke-width="0.276167" d="M89.5061,-196.278C87.3597,-179.816 81.6469,-141.618 71.5,-110.953 68.1251,-100.754 63.6885,-90.1064 59.139,-80.211"/>
<polygon fill="green" stroke="green" stroke-width="0.276167" points="62.217,-78.5328 54.7736,-70.9932 55.8906,-81.529 62.217,-78.5328"/>
</g>
<!-- B&#45;&gt;1485 -->
<g id="edge3" class="edge"><title>B&#45;&gt;1485</title>
<path fill="none" stroke="red" stroke-width="0.374786" d="M84.2121,-196.413C77.8849,-188.325 67.7728,-175.399 58.5727,-163.639"/>
<polygon fill="red" stroke="red" stroke-width="0.374786" points="61.325,-161.477 52.4067,-155.757 55.8116,-165.79 61.325,-161.477"/>
</g>
<!-- 1448 -->
<g id="node5" class="node"><title>1448</title>
<ellipse fill="white" stroke="black" cx="143.5" cy="-135.702" rx="25" ry="25"/>
<text text-anchor="middle" x="143.5" y="-133.502" font-family="Times New Roman,serif" font-size="9.00">1448</text>
</g>
<!-- B&#45;&gt;1448 -->
<g id="edge5" class="edge"><title>B&#45;&gt;1448</title>
<path fill="none" stroke="green" stroke-width="0.140458" d="M96.7879,-196.413C103.115,-188.325 113.227,-175.399 122.427,-163.639"/>
<polygon fill="green" stroke="green" stroke-width="0.140458" points="125.188,-165.79 128.593,-155.757 119.675,-161.477 125.188,-165.79"/>
</g>
<!-- 1485&#45;&gt;A XOR B -->
<g id="edge2" class="edge"><title>1485&#45;&gt;A XOR B</title>
<path fill="none" stroke="green" stroke-width="0.784697" d="M37.5,-110.916C37.5,-103.071 37.5,-94.0558 37.5,-85.1086"/>
<polygon fill="green" stroke="green" stroke-width="0.784697" points="41.0001,-85.1019 37.5,-75.102 34.0001,-85.102 41.0001,-85.1019"/>
</g>
</g>
</svg>
