<?xml version="1.0" encoding="utf-8" standalone="no"?>
<!DOCTYPE svg PUBLIC "-//W3C//DTD SVG 1.1//EN"
  "http://www.w3.org/Graphics/SVG/1.1/DTD/svg11.dtd">
<!-- Created with matplotlib (http://matplotlib.org/) -->
<svg height="345pt" version="1.1" viewBox="0 0 460 345" width="460pt" xmlns="http://www.w3.org/2000/svg" xmlns:xlink="http://www.w3.org/1999/xlink">
 <defs>
  <style type="text/css">
*{stroke-linecap:butt;stroke-linejoin:round;}
  </style>
 </defs>
 <g id="figure_1">
  <g id="patch_1">
   <path d="M 0 345.6 
L 460.8 345.6 
L 460.8 0 
L 0 0 
z
" style="fill:#ffffff;"/>
  </g>
  <g id="axes_1">
   <g id="patch_2">
    <path d="M 57.6 307.584 
L 414.72 307.584 
L 414.72 41.472 
L 57.6 41.472 
z
" style="fill:#ffffff;"/>
   </g>
   <g id="PolyCollection_1">
    <path clip-path="url(#p6b4b6a858a)" d="M 73.832727 55.822411 
L 73.832727 307.584 
L 76.984713 307.584 
L 80.136699 307.584 
L 83.288685 307.584 
L 86.440671 307.584 
L 89.592657 307.584 
L 92.744643 307.584 
L 95.896628 307.584 
L 99.048614 307.584 
L 102.2006 307.584 
L 105.352586 307.584 
L 108.504572 307.584 
L 111.656558 307.584 
L 114.808544 307.584 
L 117.96053 307.584 
L 121.112515 307.584 
L 124.264501 307.584 
L 127.416487 307.584 
L 130.568473 307.584 
L 133.720459 307.584 
L 136.872445 307.584 
L 140.024431 307.584 
L 143.176417 307.584 
L 146.328402 307.584 
L 149.480388 307.584 
L 152.632374 307.584 
L 155.78436 307.584 
L 158.936346 307.584 
L 162.088332 307.584 
L 165.240318 307.584 
L 168.392304 307.584 
L 171.544289 307.584 
L 174.696275 307.584 
L 177.848261 307.584 
L 181.000247 307.584 
L 184.152233 307.584 
L 187.304219 307.584 
L 190.456205 307.584 
L 193.608191 307.584 
L 196.760177 307.584 
L 199.912162 307.584 
L 203.064148 307.584 
L 206.216134 307.584 
L 209.36812 307.584 
L 212.520106 307.584 
L 215.672092 307.584 
L 218.824078 307.584 
L 221.976064 307.584 
L 225.128049 307.584 
L 228.280035 307.584 
L 231.432021 307.584 
L 234.584007 307.584 
L 237.735993 307.584 
L 240.887979 307.584 
L 244.039965 307.584 
L 247.191951 307.584 
L 250.343936 307.584 
L 253.495922 307.584 
L 256.647908 307.584 
L 259.799894 307.584 
L 262.95188 307.584 
L 266.103866 307.584 
L 269.255852 307.584 
L 272.407838 307.584 
L 275.559823 307.584 
L 278.711809 307.584 
L 281.863795 307.584 
L 285.015781 307.584 
L 288.167767 307.584 
L 291.319753 307.584 
L 294.471739 307.584 
L 297.623725 307.584 
L 300.775711 307.584 
L 303.927696 307.584 
L 307.079682 307.584 
L 310.231668 307.584 
L 313.383654 307.584 
L 316.53564 307.584 
L 319.687626 307.584 
L 322.839612 307.584 
L 325.991598 307.584 
L 329.143583 307.584 
L 332.295569 307.584 
L 335.447555 307.584 
L 338.599541 307.584 
L 341.751527 307.584 
L 344.903513 307.584 
L 348.055499 307.584 
L 351.207485 307.584 
L 354.35947 307.584 
L 357.511456 307.584 
L 360.663442 307.584 
L 363.815428 307.584 
L 366.967414 307.584 
L 370.1194 307.584 
L 373.271386 307.584 
L 376.423372 307.584 
L 379.575357 307.584 
L 382.727343 307.584 
L 385.879329 307.584 
L 389.031315 307.584 
L 392.183301 307.584 
L 395.335287 307.584 
L 398.487273 307.584 
L 398.487273 307.584 
L 398.487273 307.584 
L 395.335287 307.584 
L 392.183301 307.584 
L 389.031315 307.584 
L 385.879329 307.584 
L 382.727343 307.584 
L 379.575357 307.584 
L 376.423372 307.584 
L 373.271386 307.584 
L 370.1194 307.584 
L 366.967414 307.584 
L 363.815428 307.584 
L 360.663442 307.584 
L 357.511456 307.584 
L 354.35947 307.584 
L 351.207485 307.584 
L 348.055499 307.584 
L 344.903513 307.584 
L 341.751527 307.584 
L 338.599541 307.584 
L 335.447555 307.584 
L 332.295569 307.584 
L 329.143583 307.584 
L 325.991598 307.584 
L 322.839612 307.584 
L 319.687626 307.584 
L 316.53564 307.584 
L 313.383654 307.584 
L 310.231668 307.584 
L 307.079682 307.584 
L 303.927696 307.584 
L 300.775711 307.584 
L 297.623725 307.584 
L 294.471739 307.584 
L 291.319753 307.584 
L 288.167767 307.584 
L 285.015781 307.584 
L 281.863795 307.584 
L 278.711809 307.584 
L 275.559823 307.584 
L 272.407838 307.584 
L 269.255852 255.553272 
L 266.103866 243.804397 
L 262.95188 242.125987 
L 259.799894 242.125987 
L 256.647908 238.769166 
L 253.495922 245.482808 
L 250.343936 263.945325 
L 247.191951 265.623735 
L 244.039965 248.839629 
L 240.887979 245.482808 
L 237.735993 235.412344 
L 234.584007 216.949828 
L 231.432021 235.412344 
L 228.280035 205.200954 
L 225.128049 206.879364 
L 221.976064 208.557775 
L 218.824078 205.200954 
L 215.672092 213.593007 
L 212.520106 196.808901 
L 209.36812 205.200954 
L 206.216134 195.13049 
L 203.064148 185.060026 
L 199.912162 164.919099 
L 196.760177 228.698702 
L 193.608191 279.05102 
L 190.456205 257.231682 
L 187.304219 228.698702 
L 184.152233 238.769166 
L 181.000247 243.804397 
L 177.848261 253.874861 
L 174.696275 263.945325 
L 171.544289 216.949828 
L 168.392304 230.377113 
L 165.240318 180.024795 
L 162.088332 151.491815 
L 158.936346 139.74294 
L 155.78436 136.386119 
L 152.632374 213.593007 
L 149.480388 168.275921 
L 146.328402 163.240689 
L 143.176417 136.386119 
L 140.024431 121.280424 
L 136.872445 208.557775 
L 133.720459 186.738437 
L 130.568473 185.060026 
L 127.416487 164.919099 
L 124.264501 55.822411 
L 121.112515 55.822411 
L 117.96053 55.822411 
L 114.808544 55.822411 
L 111.656558 55.822411 
L 108.504572 55.822411 
L 105.352586 55.822411 
L 102.2006 55.822411 
L 99.048614 55.822411 
L 95.896628 55.822411 
L 92.744643 55.822411 
L 89.592657 55.822411 
L 86.440671 55.822411 
L 83.288685 55.822411 
L 80.136699 55.822411 
L 76.984713 55.822411 
L 73.832727 55.822411 
z
" style="fill:#1f77b4;"/>
   </g>
   <g id="PolyCollection_2">
    <path clip-path="url(#p6b4b6a858a)" d="M 73.832727 55.822411 
L 73.832727 55.822411 
L 76.984713 55.822411 
L 80.136699 55.822411 
L 83.288685 55.822411 
L 86.440671 55.822411 
L 89.592657 55.822411 
L 92.744643 55.822411 
L 95.896628 55.822411 
L 99.048614 55.822411 
L 102.2006 55.822411 
L 105.352586 55.822411 
L 108.504572 55.822411 
L 111.656558 55.822411 
L 114.808544 55.822411 
L 117.96053 55.822411 
L 121.112515 55.822411 
L 124.264501 55.822411 
L 127.416487 164.919099 
L 130.568473 185.060026 
L 133.720459 186.738437 
L 136.872445 208.557775 
L 140.024431 121.280424 
L 143.176417 136.386119 
L 146.328402 163.240689 
L 149.480388 168.275921 
L 152.632374 213.593007 
L 155.78436 136.386119 
L 158.936346 139.74294 
L 162.088332 151.491815 
L 165.240318 180.024795 
L 168.392304 230.377113 
L 171.544289 216.949828 
L 174.696275 263.945325 
L 177.848261 253.874861 
L 181.000247 243.804397 
L 184.152233 238.769166 
L 187.304219 228.698702 
L 190.456205 257.231682 
L 193.608191 279.05102 
L 196.760177 228.698702 
L 199.912162 164.919099 
L 203.064148 185.060026 
L 206.216134 195.13049 
L 209.36812 205.200954 
L 212.520106 196.808901 
L 215.672092 213.593007 
L 218.824078 205.200954 
L 221.976064 208.557775 
L 225.128049 206.879364 
L 228.280035 205.200954 
L 231.432021 235.412344 
L 234.584007 216.949828 
L 237.735993 235.412344 
L 240.887979 245.482808 
L 244.039965 248.839629 
L 247.191951 265.623735 
L 250.343936 263.945325 
L 253.495922 245.482808 
L 256.647908 238.769166 
L 259.799894 242.125987 
L 262.95188 242.125987 
L 266.103866 243.804397 
L 269.255852 255.553272 
L 272.407838 307.584 
L 275.559823 307.584 
L 278.711809 307.584 
L 281.863795 307.584 
L 285.015781 307.584 
L 288.167767 307.584 
L 291.319753 307.584 
L 294.471739 307.584 
L 297.623725 307.584 
L 300.775711 307.584 
L 303.927696 307.584 
L 307.079682 307.584 
L 310.231668 307.584 
L 313.383654 307.584 
L 316.53564 307.584 
L 319.687626 307.584 
L 322.839612 307.584 
L 325.991598 307.584 
L 329.143583 307.584 
L 332.295569 307.584 
L 335.447555 307.584 
L 338.599541 307.584 
L 341.751527 307.584 
L 344.903513 307.584 
L 348.055499 307.584 
L 351.207485 307.584 
L 354.35947 307.584 
L 357.511456 307.584 
L 360.663442 307.584 
L 363.815428 307.584 
L 366.967414 307.584 
L 370.1194 307.584 
L 373.271386 307.584 
L 376.423372 307.584 
L 379.575357 307.584 
L 382.727343 307.584 
L 385.879329 307.584 
L 389.031315 307.584 
L 392.183301 307.584 
L 395.335287 307.584 
L 398.487273 307.584 
L 398.487273 307.584 
L 398.487273 307.584 
L 395.335287 307.584 
L 392.183301 307.584 
L 389.031315 307.584 
L 385.879329 307.584 
L 382.727343 307.584 
L 379.575357 307.584 
L 376.423372 307.584 
L 373.271386 307.584 
L 370.1194 307.584 
L 366.967414 307.584 
L 363.815428 307.584 
L 360.663442 307.584 
L 357.511456 307.584 
L 354.35947 307.584 
L 351.207485 307.584 
L 348.055499 307.584 
L 344.903513 307.584 
L 341.751527 307.584 
L 338.599541 307.584 
L 335.447555 307.584 
L 332.295569 307.584 
L 329.143583 307.584 
L 325.991598 307.584 
L 322.839612 307.584 
L 319.687626 307.584 
L 316.53564 307.584 
L 313.383654 307.584 
L 310.231668 307.584 
L 307.079682 307.584 
L 303.927696 307.584 
L 300.775711 307.584 
L 297.623725 307.584 
L 294.471739 307.584 
L 291.319753 307.584 
L 288.167767 307.584 
L 285.015781 307.584 
L 281.863795 307.584 
L 278.711809 307.584 
L 275.559823 307.584 
L 272.407838 307.584 
L 269.255852 255.553272 
L 266.103866 243.804397 
L 262.95188 242.125987 
L 259.799894 242.125987 
L 256.647908 238.769166 
L 253.495922 245.482808 
L 250.343936 191.773669 
L 247.191951 178.346384 
L 244.039965 190.095258 
L 240.887979 186.738437 
L 237.735993 159.883868 
L 234.584007 151.491815 
L 231.432021 158.205457 
L 228.280035 141.421351 
L 225.128049 138.06453 
L 221.976064 134.707709 
L 218.824078 121.280424 
L 215.672092 126.315656 
L 212.520106 131.350887 
L 209.36812 131.350887 
L 206.216134 114.566781 
L 203.064148 106.174728 
L 199.912162 87.712212 
L 196.760177 156.527046 
L 193.608191 237.090755 
L 190.456205 191.773669 
L 187.304219 106.174728 
L 184.152233 126.315656 
L 181.000247 79.320159 
L 177.848261 174.989563 
L 174.696275 114.566781 
L 171.544289 106.174728 
L 168.392304 146.456583 
L 165.240318 94.425854 
L 162.088332 55.822411 
L 158.936346 55.822411 
L 155.78436 55.822411 
L 152.632374 55.822411 
L 149.480388 55.822411 
L 146.328402 55.822411 
L 143.176417 55.822411 
L 140.024431 55.822411 
L 136.872445 55.822411 
L 133.720459 55.822411 
L 130.568473 55.822411 
L 127.416487 55.822411 
L 124.264501 55.822411 
L 121.112515 55.822411 
L 117.96053 55.822411 
L 114.808544 55.822411 
L 111.656558 55.822411 
L 108.504572 55.822411 
L 105.352586 55.822411 
L 102.2006 55.822411 
L 99.048614 55.822411 
L 95.896628 55.822411 
L 92.744643 55.822411 
L 89.592657 55.822411 
L 86.440671 55.822411 
L 83.288685 55.822411 
L 80.136699 55.822411 
L 76.984713 55.822411 
L 73.832727 55.822411 
z
" style="fill:#ff7f0e;"/>
   </g>
   <g id="PolyCollection_3">
    <path clip-path="url(#p6b4b6a858a)" d="M 73.832727 55.822411 
L 73.832727 55.822411 
L 76.984713 55.822411 
L 80.136699 55.822411 
L 83.288685 55.822411 
L 86.440671 55.822411 
L 89.592657 55.822411 
L 92.744643 55.822411 
L 95.896628 55.822411 
L 99.048614 55.822411 
L 102.2006 55.822411 
L 105.352586 55.822411 
L 108.504572 55.822411 
L 111.656558 55.822411 
L 114.808544 55.822411 
L 117.96053 55.822411 
L 121.112515 55.822411 
L 124.264501 55.822411 
L 127.416487 55.822411 
L 130.568473 55.822411 
L 133.720459 55.822411 
L 136.872445 55.822411 
L 140.024431 55.822411 
L 143.176417 55.822411 
L 146.328402 55.822411 
L 149.480388 55.822411 
L 152.632374 55.822411 
L 155.78436 55.822411 
L 158.936346 55.822411 
L 162.088332 55.822411 
L 165.240318 94.425854 
L 168.392304 146.456583 
L 171.544289 106.174728 
L 174.696275 114.566781 
L 177.848261 174.989563 
L 181.000247 79.320159 
L 184.152233 126.315656 
L 187.304219 106.174728 
L 190.456205 191.773669 
L 193.608191 237.090755 
L 196.760177 156.527046 
L 199.912162 87.712212 
L 203.064148 106.174728 
L 206.216134 114.566781 
L 209.36812 131.350887 
L 212.520106 131.350887 
L 215.672092 126.315656 
L 218.824078 121.280424 
L 221.976064 134.707709 
L 225.128049 138.06453 
L 228.280035 141.421351 
L 231.432021 158.205457 
L 234.584007 151.491815 
L 237.735993 159.883868 
L 240.887979 186.738437 
L 244.039965 190.095258 
L 247.191951 178.346384 
L 250.343936 191.773669 
L 253.495922 245.482808 
L 256.647908 238.769166 
L 259.799894 242.125987 
L 262.95188 242.125987 
L 266.103866 243.804397 
L 269.255852 255.553272 
L 272.407838 307.584 
L 275.559823 307.584 
L 278.711809 307.584 
L 281.863795 307.584 
L 285.015781 307.584 
L 288.167767 307.584 
L 291.319753 307.584 
L 294.471739 307.584 
L 297.623725 307.584 
L 300.775711 307.584 
L 303.927696 307.584 
L 307.079682 307.584 
L 310.231668 307.584 
L 313.383654 307.584 
L 316.53564 307.584 
L 319.687626 307.584 
L 322.839612 307.584 
L 325.991598 307.584 
L 329.143583 307.584 
L 332.295569 307.584 
L 335.447555 307.584 
L 338.599541 307.584 
L 341.751527 307.584 
L 344.903513 307.584 
L 348.055499 307.584 
L 351.207485 307.584 
L 354.35947 307.584 
L 357.511456 307.584 
L 360.663442 307.584 
L 363.815428 307.584 
L 366.967414 307.584 
L 370.1194 307.584 
L 373.271386 307.584 
L 376.423372 307.584 
L 379.575357 307.584 
L 382.727343 307.584 
L 385.879329 307.584 
L 389.031315 307.584 
L 392.183301 307.584 
L 395.335287 307.584 
L 398.487273 307.584 
L 398.487273 307.584 
L 398.487273 307.584 
L 395.335287 307.584 
L 392.183301 307.584 
L 389.031315 307.584 
L 385.879329 307.584 
L 382.727343 307.584 
L 379.575357 307.584 
L 376.423372 307.584 
L 373.271386 307.584 
L 370.1194 307.584 
L 366.967414 307.584 
L 363.815428 307.584 
L 360.663442 307.584 
L 357.511456 307.584 
L 354.35947 307.584 
L 351.207485 307.584 
L 348.055499 307.584 
L 344.903513 307.584 
L 341.751527 307.584 
L 338.599541 307.584 
L 335.447555 307.584 
L 332.295569 307.584 
L 329.143583 307.584 
L 325.991598 307.584 
L 322.839612 307.584 
L 319.687626 307.584 
L 316.53564 307.584 
L 313.383654 307.584 
L 310.231668 307.584 
L 307.079682 307.584 
L 303.927696 307.584 
L 300.775711 307.584 
L 297.623725 307.584 
L 294.471739 307.584 
L 291.319753 307.584 
L 288.167767 307.584 
L 285.015781 307.584 
L 281.863795 307.584 
L 278.711809 258.910093 
L 275.559823 253.874861 
L 272.407838 242.125987 
L 269.255852 205.200954 
L 266.103866 203.522543 
L 262.95188 188.416848 
L 259.799894 178.346384 
L 256.647908 178.346384 
L 253.495922 169.954331 
L 250.343936 138.06453 
L 247.191951 109.53155 
L 244.039965 127.994066 
L 240.887979 106.174728 
L 237.735993 89.390623 
L 234.584007 82.67698 
L 231.432021 74.284927 
L 228.280035 59.179232 
L 225.128049 57.500821 
L 221.976064 55.822411 
L 218.824078 55.822411 
L 215.672092 55.822411 
L 212.520106 54.144 
L 209.36812 55.822411 
L 206.216134 55.822411 
L 203.064148 55.822411 
L 199.912162 55.822411 
L 196.760177 55.822411 
L 193.608191 54.144 
L 190.456205 54.144 
L 187.304219 54.144 
L 184.152233 54.144 
L 181.000247 54.144 
L 177.848261 54.144 
L 174.696275 55.822411 
L 171.544289 55.822411 
L 168.392304 55.822411 
L 165.240318 55.822411 
L 162.088332 55.822411 
L 158.936346 55.822411 
L 155.78436 55.822411 
L 152.632374 55.822411 
L 149.480388 55.822411 
L 146.328402 55.822411 
L 143.176417 55.822411 
L 140.024431 55.822411 
L 136.872445 55.822411 
L 133.720459 55.822411 
L 130.568473 55.822411 
L 127.416487 55.822411 
L 124.264501 55.822411 
L 121.112515 55.822411 
L 117.96053 55.822411 
L 114.808544 55.822411 
L 111.656558 55.822411 
L 108.504572 55.822411 
L 105.352586 55.822411 
L 102.2006 55.822411 
L 99.048614 55.822411 
L 95.896628 55.822411 
L 92.744643 55.822411 
L 89.592657 55.822411 
L 86.440671 55.822411 
L 83.288685 55.822411 
L 80.136699 55.822411 
L 76.984713 55.822411 
L 73.832727 55.822411 
z
" style="fill:#2ca02c;"/>
   </g>
   <g id="PolyCollection_4">
    <path clip-path="url(#p6b4b6a858a)" d="M 73.832727 55.822411 
L 73.832727 55.822411 
L 76.984713 55.822411 
L 80.136699 55.822411 
L 83.288685 55.822411 
L 86.440671 55.822411 
L 89.592657 55.822411 
L 92.744643 55.822411 
L 95.896628 55.822411 
L 99.048614 55.822411 
L 102.2006 55.822411 
L 105.352586 55.822411 
L 108.504572 55.822411 
L 111.656558 55.822411 
L 114.808544 55.822411 
L 117.96053 55.822411 
L 121.112515 55.822411 
L 124.264501 55.822411 
L 127.416487 55.822411 
L 130.568473 55.822411 
L 133.720459 55.822411 
L 136.872445 55.822411 
L 140.024431 55.822411 
L 143.176417 55.822411 
L 146.328402 55.822411 
L 149.480388 55.822411 
L 152.632374 55.822411 
L 155.78436 55.822411 
L 158.936346 55.822411 
L 162.088332 55.822411 
L 165.240318 55.822411 
L 168.392304 55.822411 
L 171.544289 55.822411 
L 174.696275 55.822411 
L 177.848261 54.144 
L 181.000247 54.144 
L 184.152233 54.144 
L 187.304219 54.144 
L 190.456205 54.144 
L 193.608191 54.144 
L 196.760177 55.822411 
L 199.912162 55.822411 
L 203.064148 55.822411 
L 206.216134 55.822411 
L 209.36812 55.822411 
L 212.520106 54.144 
L 215.672092 55.822411 
L 218.824078 55.822411 
L 221.976064 55.822411 
L 225.128049 57.500821 
L 228.280035 59.179232 
L 231.432021 74.284927 
L 234.584007 82.67698 
L 237.735993 89.390623 
L 240.887979 106.174728 
L 244.039965 127.994066 
L 247.191951 109.53155 
L 250.343936 138.06453 
L 253.495922 169.954331 
L 256.647908 178.346384 
L 259.799894 178.346384 
L 262.95188 188.416848 
L 266.103866 203.522543 
L 269.255852 205.200954 
L 272.407838 242.125987 
L 275.559823 253.874861 
L 278.711809 258.910093 
L 281.863795 307.584 
L 285.015781 307.584 
L 288.167767 307.584 
L 291.319753 307.584 
L 294.471739 307.584 
L 297.623725 307.584 
L 300.775711 307.584 
L 303.927696 307.584 
L 307.079682 307.584 
L 310.231668 307.584 
L 313.383654 307.584 
L 316.53564 307.584 
L 319.687626 307.584 
L 322.839612 307.584 
L 325.991598 307.584 
L 329.143583 307.584 
L 332.295569 307.584 
L 335.447555 307.584 
L 338.599541 307.584 
L 341.751527 307.584 
L 344.903513 307.584 
L 348.055499 307.584 
L 351.207485 307.584 
L 354.35947 307.584 
L 357.511456 307.584 
L 360.663442 307.584 
L 363.815428 307.584 
L 366.967414 307.584 
L 370.1194 307.584 
L 373.271386 307.584 
L 376.423372 307.584 
L 379.575357 307.584 
L 382.727343 307.584 
L 385.879329 307.584 
L 389.031315 307.584 
L 392.183301 307.584 
L 395.335287 307.584 
L 398.487273 307.584 
L 398.487273 253.874861 
L 398.487273 253.874861 
L 395.335287 248.839629 
L 392.183301 243.804397 
L 389.031315 243.804397 
L 385.879329 243.804397 
L 382.727343 242.125987 
L 379.575357 248.839629 
L 376.423372 250.51804 
L 373.271386 247.161219 
L 370.1194 240.447576 
L 366.967414 237.090755 
L 363.815428 255.553272 
L 360.663442 267.302146 
L 357.511456 255.553272 
L 354.35947 252.19645 
L 351.207485 247.161219 
L 348.055499 250.51804 
L 344.903513 230.377113 
L 341.751527 258.910093 
L 338.599541 248.839629 
L 335.447555 250.51804 
L 332.295569 230.377113 
L 329.143583 221.98506 
L 325.991598 255.553272 
L 322.839612 258.910093 
L 319.687626 248.839629 
L 316.53564 238.769166 
L 313.383654 238.769166 
L 310.231668 247.161219 
L 307.079682 238.769166 
L 303.927696 267.302146 
L 300.775711 267.302146 
L 297.623725 260.588503 
L 294.471739 263.945325 
L 291.319753 258.910093 
L 288.167767 275.694199 
L 285.015781 284.086252 
L 281.863795 242.125987 
L 278.711809 220.306649 
L 275.559823 216.949828 
L 272.407838 233.733934 
L 269.255852 178.346384 
L 266.103866 193.452079 
L 262.95188 158.205457 
L 259.799894 144.778172 
L 256.647908 126.315656 
L 253.495922 138.06453 
L 250.343936 134.707709 
L 247.191951 82.67698 
L 244.039965 104.496318 
L 240.887979 86.033801 
L 237.735993 62.536053 
L 234.584007 54.144 
L 231.432021 55.822411 
L 228.280035 55.822411 
L 225.128049 57.500821 
L 221.976064 55.822411 
L 218.824078 55.822411 
L 215.672092 55.822411 
L 212.520106 54.144 
L 209.36812 55.822411 
L 206.216134 55.822411 
L 203.064148 55.822411 
L 199.912162 55.822411 
L 196.760177 55.822411 
L 193.608191 54.144 
L 190.456205 54.144 
L 187.304219 54.144 
L 184.152233 54.144 
L 181.000247 54.144 
L 177.848261 54.144 
L 174.696275 55.822411 
L 171.544289 55.822411 
L 168.392304 55.822411 
L 165.240318 55.822411 
L 162.088332 55.822411 
L 158.936346 55.822411 
L 155.78436 55.822411 
L 152.632374 55.822411 
L 149.480388 55.822411 
L 146.328402 55.822411 
L 143.176417 55.822411 
L 140.024431 55.822411 
L 136.872445 55.822411 
L 133.720459 55.822411 
L 130.568473 55.822411 
L 127.416487 55.822411 
L 124.264501 55.822411 
L 121.112515 55.822411 
L 117.96053 55.822411 
L 114.808544 55.822411 
L 111.656558 55.822411 
L 108.504572 55.822411 
L 105.352586 55.822411 
L 102.2006 55.822411 
L 99.048614 55.822411 
L 95.896628 55.822411 
L 92.744643 55.822411 
L 89.592657 55.822411 
L 86.440671 55.822411 
L 83.288685 55.822411 
L 80.136699 55.822411 
L 76.984713 55.822411 
L 73.832727 55.822411 
z
" style="fill:#d62728;"/>
   </g>
   <g id="PolyCollection_5">
    <path clip-path="url(#p6b4b6a858a)" d="M 73.832727 55.822411 
L 73.832727 55.822411 
L 76.984713 55.822411 
L 80.136699 55.822411 
L 83.288685 55.822411 
L 86.440671 55.822411 
L 89.592657 55.822411 
L 92.744643 55.822411 
L 95.896628 55.822411 
L 99.048614 55.822411 
L 102.2006 55.822411 
L 105.352586 55.822411 
L 108.504572 55.822411 
L 111.656558 55.822411 
L 114.808544 55.822411 
L 117.96053 55.822411 
L 121.112515 55.822411 
L 124.264501 55.822411 
L 127.416487 55.822411 
L 130.568473 55.822411 
L 133.720459 55.822411 
L 136.872445 55.822411 
L 140.024431 55.822411 
L 143.176417 55.822411 
L 146.328402 55.822411 
L 149.480388 55.822411 
L 152.632374 55.822411 
L 155.78436 55.822411 
L 158.936346 55.822411 
L 162.088332 55.822411 
L 165.240318 55.822411 
L 168.392304 55.822411 
L 171.544289 55.822411 
L 174.696275 55.822411 
L 177.848261 54.144 
L 181.000247 54.144 
L 184.152233 54.144 
L 187.304219 54.144 
L 190.456205 54.144 
L 193.608191 54.144 
L 196.760177 55.822411 
L 199.912162 55.822411 
L 203.064148 55.822411 
L 206.216134 55.822411 
L 209.36812 55.822411 
L 212.520106 54.144 
L 215.672092 55.822411 
L 218.824078 55.822411 
L 221.976064 55.822411 
L 225.128049 57.500821 
L 228.280035 55.822411 
L 231.432021 55.822411 
L 234.584007 54.144 
L 237.735993 62.536053 
L 240.887979 86.033801 
L 244.039965 104.496318 
L 247.191951 82.67698 
L 250.343936 134.707709 
L 253.495922 138.06453 
L 256.647908 126.315656 
L 259.799894 144.778172 
L 262.95188 158.205457 
L 266.103866 193.452079 
L 269.255852 178.346384 
L 272.407838 233.733934 
L 275.559823 216.949828 
L 278.711809 220.306649 
L 281.863795 242.125987 
L 285.015781 284.086252 
L 288.167767 275.694199 
L 291.319753 258.910093 
L 294.471739 263.945325 
L 297.623725 260.588503 
L 300.775711 267.302146 
L 303.927696 267.302146 
L 307.079682 238.769166 
L 310.231668 247.161219 
L 313.383654 238.769166 
L 316.53564 238.769166 
L 319.687626 248.839629 
L 322.839612 258.910093 
L 325.991598 255.553272 
L 329.143583 221.98506 
L 332.295569 230.377113 
L 335.447555 250.51804 
L 338.599541 248.839629 
L 341.751527 258.910093 
L 344.903513 230.377113 
L 348.055499 250.51804 
L 351.207485 247.161219 
L 354.35947 252.19645 
L 357.511456 255.553272 
L 360.663442 267.302146 
L 363.815428 255.553272 
L 366.967414 237.090755 
L 370.1194 240.447576 
L 373.271386 247.161219 
L 376.423372 250.51804 
L 379.575357 248.839629 
L 382.727343 242.125987 
L 385.879329 243.804397 
L 389.031315 243.804397 
L 392.183301 243.804397 
L 395.335287 248.839629 
L 398.487273 253.874861 
L 398.487273 200.165722 
L 398.487273 200.165722 
L 395.335287 191.773669 
L 392.183301 183.381616 
L 389.031315 181.703205 
L 385.879329 181.703205 
L 382.727343 181.703205 
L 379.575357 181.703205 
L 376.423372 176.667974 
L 373.271386 171.632742 
L 370.1194 168.275921 
L 366.967414 158.205457 
L 363.815428 186.738437 
L 360.663442 196.808901 
L 357.511456 191.773669 
L 354.35947 196.808901 
L 351.207485 190.095258 
L 348.055499 196.808901 
L 344.903513 183.381616 
L 341.751527 188.416848 
L 338.599541 188.416848 
L 335.447555 183.381616 
L 332.295569 186.738437 
L 329.143583 195.13049 
L 325.991598 195.13049 
L 322.839612 201.844132 
L 319.687626 200.165722 
L 316.53564 190.095258 
L 313.383654 195.13049 
L 310.231668 195.13049 
L 307.079682 191.773669 
L 303.927696 205.200954 
L 300.775711 205.200954 
L 297.623725 205.200954 
L 294.471739 211.914596 
L 291.319753 220.306649 
L 288.167767 240.447576 
L 285.015781 211.914596 
L 281.863795 220.306649 
L 278.711809 173.311152 
L 275.559823 181.703205 
L 272.407838 195.13049 
L 269.255852 136.386119 
L 266.103866 134.707709 
L 262.95188 127.994066 
L 259.799894 111.20996 
L 256.647908 109.53155 
L 253.495922 112.888371 
L 250.343936 94.425854 
L 247.191951 64.214464 
L 244.039965 55.822411 
L 240.887979 55.822411 
L 237.735993 54.144 
L 234.584007 54.144 
L 231.432021 55.822411 
L 228.280035 55.822411 
L 225.128049 57.500821 
L 221.976064 55.822411 
L 218.824078 55.822411 
L 215.672092 55.822411 
L 212.520106 54.144 
L 209.36812 55.822411 
L 206.216134 55.822411 
L 203.064148 55.822411 
L 199.912162 55.822411 
L 196.760177 55.822411 
L 193.608191 54.144 
L 190.456205 54.144 
L 187.304219 54.144 
L 184.152233 54.144 
L 181.000247 54.144 
L 177.848261 54.144 
L 174.696275 55.822411 
L 171.544289 55.822411 
L 168.392304 55.822411 
L 165.240318 55.822411 
L 162.088332 55.822411 
L 158.936346 55.822411 
L 155.78436 55.822411 
L 152.632374 55.822411 
L 149.480388 55.822411 
L 146.328402 55.822411 
L 143.176417 55.822411 
L 140.024431 55.822411 
L 136.872445 55.822411 
L 133.720459 55.822411 
L 130.568473 55.822411 
L 127.416487 55.822411 
L 124.264501 55.822411 
L 121.112515 55.822411 
L 117.96053 55.822411 
L 114.808544 55.822411 
L 111.656558 55.822411 
L 108.504572 55.822411 
L 105.352586 55.822411 
L 102.2006 55.822411 
L 99.048614 55.822411 
L 95.896628 55.822411 
L 92.744643 55.822411 
L 89.592657 55.822411 
L 86.440671 55.822411 
L 83.288685 55.822411 
L 80.136699 55.822411 
L 76.984713 55.822411 
L 73.832727 55.822411 
z
" style="fill:#9467bd;"/>
   </g>
   <g id="PolyCollection_6">
    <path clip-path="url(#p6b4b6a858a)" d="M 73.832727 55.822411 
L 73.832727 55.822411 
L 76.984713 55.822411 
L 80.136699 55.822411 
L 83.288685 55.822411 
L 86.440671 55.822411 
L 89.592657 55.822411 
L 92.744643 55.822411 
L 95.896628 55.822411 
L 99.048614 55.822411 
L 102.2006 55.822411 
L 105.352586 55.822411 
L 108.504572 55.822411 
L 111.656558 55.822411 
L 114.808544 55.822411 
L 117.96053 55.822411 
L 121.112515 55.822411 
L 124.264501 55.822411 
L 127.416487 55.822411 
L 130.568473 55.822411 
L 133.720459 55.822411 
L 136.872445 55.822411 
L 140.024431 55.822411 
L 143.176417 55.822411 
L 146.328402 55.822411 
L 149.480388 55.822411 
L 152.632374 55.822411 
L 155.78436 55.822411 
L 158.936346 55.822411 
L 162.088332 55.822411 
L 165.240318 55.822411 
L 168.392304 55.822411 
L 171.544289 55.822411 
L 174.696275 55.822411 
L 177.848261 54.144 
L 181.000247 54.144 
L 184.152233 54.144 
L 187.304219 54.144 
L 190.456205 54.144 
L 193.608191 54.144 
L 196.760177 55.822411 
L 199.912162 55.822411 
L 203.064148 55.822411 
L 206.216134 55.822411 
L 209.36812 55.822411 
L 212.520106 54.144 
L 215.672092 55.822411 
L 218.824078 55.822411 
L 221.976064 55.822411 
L 225.128049 57.500821 
L 228.280035 55.822411 
L 231.432021 55.822411 
L 234.584007 54.144 
L 237.735993 54.144 
L 240.887979 55.822411 
L 244.039965 55.822411 
L 247.191951 64.214464 
L 250.343936 94.425854 
L 253.495922 112.888371 
L 256.647908 109.53155 
L 259.799894 111.20996 
L 262.95188 127.994066 
L 266.103866 134.707709 
L 269.255852 136.386119 
L 272.407838 195.13049 
L 275.559823 181.703205 
L 278.711809 173.311152 
L 281.863795 220.306649 
L 285.015781 211.914596 
L 288.167767 240.447576 
L 291.319753 220.306649 
L 294.471739 211.914596 
L 297.623725 205.200954 
L 300.775711 205.200954 
L 303.927696 205.200954 
L 307.079682 191.773669 
L 310.231668 195.13049 
L 313.383654 195.13049 
L 316.53564 190.095258 
L 319.687626 200.165722 
L 322.839612 201.844132 
L 325.991598 195.13049 
L 329.143583 195.13049 
L 332.295569 186.738437 
L 335.447555 183.381616 
L 338.599541 188.416848 
L 341.751527 188.416848 
L 344.903513 183.381616 
L 348.055499 196.808901 
L 351.207485 190.095258 
L 354.35947 196.808901 
L 357.511456 191.773669 
L 360.663442 196.808901 
L 363.815428 186.738437 
L 366.967414 158.205457 
L 370.1194 168.275921 
L 373.271386 171.632742 
L 376.423372 176.667974 
L 379.575357 181.703205 
L 382.727343 181.703205 
L 385.879329 181.703205 
L 389.031315 181.703205 
L 392.183301 183.381616 
L 395.335287 191.773669 
L 398.487273 200.165722 
L 398.487273 200.165722 
L 398.487273 200.165722 
L 395.335287 191.773669 
L 392.183301 183.381616 
L 389.031315 181.703205 
L 385.879329 181.703205 
L 382.727343 181.703205 
L 379.575357 181.703205 
L 376.423372 176.667974 
L 373.271386 171.632742 
L 370.1194 168.275921 
L 366.967414 158.205457 
L 363.815428 117.923603 
L 360.663442 122.958834 
L 357.511456 121.280424 
L 354.35947 121.280424 
L 351.207485 122.958834 
L 348.055499 124.637245 
L 344.903513 122.958834 
L 341.751527 121.280424 
L 338.599541 121.280424 
L 335.447555 116.245192 
L 332.295569 117.923603 
L 329.143583 121.280424 
L 325.991598 122.958834 
L 322.839612 122.958834 
L 319.687626 124.637245 
L 316.53564 119.602013 
L 313.383654 122.958834 
L 310.231668 121.280424 
L 307.079682 117.923603 
L 303.927696 134.707709 
L 300.775711 134.707709 
L 297.623725 139.74294 
L 294.471739 141.421351 
L 291.319753 143.099762 
L 288.167767 164.919099 
L 285.015781 136.386119 
L 281.863795 148.134993 
L 278.711809 112.888371 
L 275.559823 109.53155 
L 272.407838 94.425854 
L 269.255852 101.139497 
L 266.103866 89.390623 
L 262.95188 77.641748 
L 259.799894 54.144 
L 256.647908 54.144 
L 253.495922 57.500821 
L 250.343936 55.822411 
L 247.191951 54.144 
L 244.039965 55.822411 
L 240.887979 55.822411 
L 237.735993 54.144 
L 234.584007 54.144 
L 231.432021 55.822411 
L 228.280035 55.822411 
L 225.128049 57.500821 
L 221.976064 55.822411 
L 218.824078 55.822411 
L 215.672092 55.822411 
L 212.520106 54.144 
L 209.36812 55.822411 
L 206.216134 55.822411 
L 203.064148 55.822411 
L 199.912162 55.822411 
L 196.760177 55.822411 
L 193.608191 54.144 
L 190.456205 54.144 
L 187.304219 54.144 
L 184.152233 54.144 
L 181.000247 54.144 
L 177.848261 54.144 
L 174.696275 55.822411 
L 171.544289 55.822411 
L 168.392304 55.822411 
L 165.240318 55.822411 
L 162.088332 55.822411 
L 158.936346 55.822411 
L 155.78436 55.822411 
L 152.632374 55.822411 
L 149.480388 55.822411 
L 146.328402 55.822411 
L 143.176417 55.822411 
L 140.024431 55.822411 
L 136.872445 55.822411 
L 133.720459 55.822411 
L 130.568473 55.822411 
L 127.416487 55.822411 
L 124.264501 55.822411 
L 121.112515 55.822411 
L 117.96053 55.822411 
L 114.808544 55.822411 
L 111.656558 55.822411 
L 108.504572 55.822411 
L 105.352586 55.822411 
L 102.2006 55.822411 
L 99.048614 55.822411 
L 95.896628 55.822411 
L 92.744643 55.822411 
L 89.592657 55.822411 
L 86.440671 55.822411 
L 83.288685 55.822411 
L 80.136699 55.822411 
L 76.984713 55.822411 
L 73.832727 55.822411 
z
" style="fill:#8c564b;"/>
   </g>
   <g id="PolyCollection_7">
    <path clip-path="url(#p6b4b6a858a)" d="M 73.832727 55.822411 
L 73.832727 55.822411 
L 76.984713 55.822411 
L 80.136699 55.822411 
L 83.288685 55.822411 
L 86.440671 55.822411 
L 89.592657 55.822411 
L 92.744643 55.822411 
L 95.896628 55.822411 
L 99.048614 55.822411 
L 102.2006 55.822411 
L 105.352586 55.822411 
L 108.504572 55.822411 
L 111.656558 55.822411 
L 114.808544 55.822411 
L 117.96053 55.822411 
L 121.112515 55.822411 
L 124.264501 55.822411 
L 127.416487 55.822411 
L 130.568473 55.822411 
L 133.720459 55.822411 
L 136.872445 55.822411 
L 140.024431 55.822411 
L 143.176417 55.822411 
L 146.328402 55.822411 
L 149.480388 55.822411 
L 152.632374 55.822411 
L 155.78436 55.822411 
L 158.936346 55.822411 
L 162.088332 55.822411 
L 165.240318 55.822411 
L 168.392304 55.822411 
L 171.544289 55.822411 
L 174.696275 55.822411 
L 177.848261 54.144 
L 181.000247 54.144 
L 184.152233 54.144 
L 187.304219 54.144 
L 190.456205 54.144 
L 193.608191 54.144 
L 196.760177 55.822411 
L 199.912162 55.822411 
L 203.064148 55.822411 
L 206.216134 55.822411 
L 209.36812 55.822411 
L 212.520106 54.144 
L 215.672092 55.822411 
L 218.824078 55.822411 
L 221.976064 55.822411 
L 225.128049 57.500821 
L 228.280035 55.822411 
L 231.432021 55.822411 
L 234.584007 54.144 
L 237.735993 54.144 
L 240.887979 55.822411 
L 244.039965 55.822411 
L 247.191951 54.144 
L 250.343936 55.822411 
L 253.495922 57.500821 
L 256.647908 54.144 
L 259.799894 54.144 
L 262.95188 77.641748 
L 266.103866 89.390623 
L 269.255852 101.139497 
L 272.407838 94.425854 
L 275.559823 109.53155 
L 278.711809 112.888371 
L 281.863795 148.134993 
L 285.015781 136.386119 
L 288.167767 164.919099 
L 291.319753 143.099762 
L 294.471739 141.421351 
L 297.623725 139.74294 
L 300.775711 134.707709 
L 303.927696 134.707709 
L 307.079682 117.923603 
L 310.231668 121.280424 
L 313.383654 122.958834 
L 316.53564 119.602013 
L 319.687626 124.637245 
L 322.839612 122.958834 
L 325.991598 122.958834 
L 329.143583 121.280424 
L 332.295569 117.923603 
L 335.447555 116.245192 
L 338.599541 121.280424 
L 341.751527 121.280424 
L 344.903513 122.958834 
L 348.055499 124.637245 
L 351.207485 122.958834 
L 354.35947 121.280424 
L 357.511456 121.280424 
L 360.663442 122.958834 
L 363.815428 117.923603 
L 366.967414 158.205457 
L 370.1194 168.275921 
L 373.271386 171.632742 
L 376.423372 176.667974 
L 379.575357 181.703205 
L 382.727343 181.703205 
L 385.879329 181.703205 
L 389.031315 181.703205 
L 392.183301 183.381616 
L 395.335287 191.773669 
L 398.487273 200.165722 
L 398.487273 148.134993 
L 398.487273 148.134993 
L 395.335287 133.029298 
L 392.183301 119.602013 
L 389.031315 112.888371 
L 385.879329 109.53155 
L 382.727343 122.958834 
L 379.575357 126.315656 
L 376.423372 129.672477 
L 373.271386 94.425854 
L 370.1194 89.390623 
L 366.967414 82.67698 
L 363.815428 59.179232 
L 360.663442 55.822411 
L 357.511456 54.144 
L 354.35947 57.500821 
L 351.207485 55.822411 
L 348.055499 55.822411 
L 344.903513 54.144 
L 341.751527 54.144 
L 338.599541 55.822411 
L 335.447555 55.822411 
L 332.295569 55.822411 
L 329.143583 55.822411 
L 325.991598 55.822411 
L 322.839612 54.144 
L 319.687626 57.500821 
L 316.53564 55.822411 
L 313.383654 57.500821 
L 310.231668 54.144 
L 307.079682 55.822411 
L 303.927696 55.822411 
L 300.775711 55.822411 
L 297.623725 57.500821 
L 294.471739 57.500821 
L 291.319753 55.822411 
L 288.167767 55.822411 
L 285.015781 55.822411 
L 281.863795 55.822411 
L 278.711809 54.144 
L 275.559823 55.822411 
L 272.407838 55.822411 
L 269.255852 57.500821 
L 266.103866 54.144 
L 262.95188 54.144 
L 259.799894 54.144 
L 256.647908 54.144 
L 253.495922 57.500821 
L 250.343936 55.822411 
L 247.191951 54.144 
L 244.039965 55.822411 
L 240.887979 55.822411 
L 237.735993 54.144 
L 234.584007 54.144 
L 231.432021 55.822411 
L 228.280035 55.822411 
L 225.128049 57.500821 
L 221.976064 55.822411 
L 218.824078 55.822411 
L 215.672092 55.822411 
L 212.520106 54.144 
L 209.36812 55.822411 
L 206.216134 55.822411 
L 203.064148 55.822411 
L 199.912162 55.822411 
L 196.760177 55.822411 
L 193.608191 54.144 
L 190.456205 54.144 
L 187.304219 54.144 
L 184.152233 54.144 
L 181.000247 54.144 
L 177.848261 54.144 
L 174.696275 55.822411 
L 171.544289 55.822411 
L 168.392304 55.822411 
L 165.240318 55.822411 
L 162.088332 55.822411 
L 158.936346 55.822411 
L 155.78436 55.822411 
L 152.632374 55.822411 
L 149.480388 55.822411 
L 146.328402 55.822411 
L 143.176417 55.822411 
L 140.024431 55.822411 
L 136.872445 55.822411 
L 133.720459 55.822411 
L 130.568473 55.822411 
L 127.416487 55.822411 
L 124.264501 55.822411 
L 121.112515 55.822411 
L 117.96053 55.822411 
L 114.808544 55.822411 
L 111.656558 55.822411 
L 108.504572 55.822411 
L 105.352586 55.822411 
L 102.2006 55.822411 
L 99.048614 55.822411 
L 95.896628 55.822411 
L 92.744643 55.822411 
L 89.592657 55.822411 
L 86.440671 55.822411 
L 83.288685 55.822411 
L 80.136699 55.822411 
L 76.984713 55.822411 
L 73.832727 55.822411 
z
" style="fill:#e377c2;"/>
   </g>
   <g id="PolyCollection_8">
    <path clip-path="url(#p6b4b6a858a)" d="M 73.832727 55.822411 
L 73.832727 55.822411 
L 76.984713 55.822411 
L 80.136699 55.822411 
L 83.288685 55.822411 
L 86.440671 55.822411 
L 89.592657 55.822411 
L 92.744643 55.822411 
L 95.896628 55.822411 
L 99.048614 55.822411 
L 102.2006 55.822411 
L 105.352586 55.822411 
L 108.504572 55.822411 
L 111.656558 55.822411 
L 114.808544 55.822411 
L 117.96053 55.822411 
L 121.112515 55.822411 
L 124.264501 55.822411 
L 127.416487 55.822411 
L 130.568473 55.822411 
L 133.720459 55.822411 
L 136.872445 55.822411 
L 140.024431 55.822411 
L 143.176417 55.822411 
L 146.328402 55.822411 
L 149.480388 55.822411 
L 152.632374 55.822411 
L 155.78436 55.822411 
L 158.936346 55.822411 
L 162.088332 55.822411 
L 165.240318 55.822411 
L 168.392304 55.822411 
L 171.544289 55.822411 
L 174.696275 55.822411 
L 177.848261 54.144 
L 181.000247 54.144 
L 184.152233 54.144 
L 187.304219 54.144 
L 190.456205 54.144 
L 193.608191 54.144 
L 196.760177 55.822411 
L 199.912162 55.822411 
L 203.064148 55.822411 
L 206.216134 55.822411 
L 209.36812 55.822411 
L 212.520106 54.144 
L 215.672092 55.822411 
L 218.824078 55.822411 
L 221.976064 55.822411 
L 225.128049 57.500821 
L 228.280035 55.822411 
L 231.432021 55.822411 
L 234.584007 54.144 
L 237.735993 54.144 
L 240.887979 55.822411 
L 244.039965 55.822411 
L 247.191951 54.144 
L 250.343936 55.822411 
L 253.495922 57.500821 
L 256.647908 54.144 
L 259.799894 54.144 
L 262.95188 54.144 
L 266.103866 54.144 
L 269.255852 57.500821 
L 272.407838 55.822411 
L 275.559823 55.822411 
L 278.711809 54.144 
L 281.863795 55.822411 
L 285.015781 55.822411 
L 288.167767 55.822411 
L 291.319753 55.822411 
L 294.471739 57.500821 
L 297.623725 57.500821 
L 300.775711 55.822411 
L 303.927696 55.822411 
L 307.079682 55.822411 
L 310.231668 54.144 
L 313.383654 57.500821 
L 316.53564 55.822411 
L 319.687626 57.500821 
L 322.839612 54.144 
L 325.991598 55.822411 
L 329.143583 55.822411 
L 332.295569 55.822411 
L 335.447555 55.822411 
L 338.599541 55.822411 
L 341.751527 54.144 
L 344.903513 54.144 
L 348.055499 55.822411 
L 351.207485 55.822411 
L 354.35947 57.500821 
L 357.511456 54.144 
L 360.663442 55.822411 
L 363.815428 59.179232 
L 366.967414 82.67698 
L 370.1194 89.390623 
L 373.271386 94.425854 
L 376.423372 129.672477 
L 379.575357 126.315656 
L 382.727343 122.958834 
L 385.879329 109.53155 
L 389.031315 112.888371 
L 392.183301 119.602013 
L 395.335287 133.029298 
L 398.487273 148.134993 
L 398.487273 97.782675 
L 398.487273 97.782675 
L 395.335287 77.641748 
L 392.183301 59.179232 
L 389.031315 54.144 
L 385.879329 54.144 
L 382.727343 55.822411 
L 379.575357 57.500821 
L 376.423372 57.500821 
L 373.271386 55.822411 
L 370.1194 55.822411 
L 366.967414 54.144 
L 363.815428 55.822411 
L 360.663442 55.822411 
L 357.511456 54.144 
L 354.35947 57.500821 
L 351.207485 55.822411 
L 348.055499 55.822411 
L 344.903513 54.144 
L 341.751527 54.144 
L 338.599541 55.822411 
L 335.447555 55.822411 
L 332.295569 55.822411 
L 329.143583 55.822411 
L 325.991598 55.822411 
L 322.839612 54.144 
L 319.687626 57.500821 
L 316.53564 55.822411 
L 313.383654 57.500821 
L 310.231668 54.144 
L 307.079682 55.822411 
L 303.927696 55.822411 
L 300.775711 55.822411 
L 297.623725 57.500821 
L 294.471739 57.500821 
L 291.319753 55.822411 
L 288.167767 55.822411 
L 285.015781 55.822411 
L 281.863795 55.822411 
L 278.711809 54.144 
L 275.559823 55.822411 
L 272.407838 55.822411 
L 269.255852 57.500821 
L 266.103866 54.144 
L 262.95188 54.144 
L 259.799894 54.144 
L 256.647908 54.144 
L 253.495922 57.500821 
L 250.343936 55.822411 
L 247.191951 54.144 
L 244.039965 55.822411 
L 240.887979 55.822411 
L 237.735993 54.144 
L 234.584007 54.144 
L 231.432021 55.822411 
L 228.280035 55.822411 
L 225.128049 57.500821 
L 221.976064 55.822411 
L 218.824078 55.822411 
L 215.672092 55.822411 
L 212.520106 54.144 
L 209.36812 55.822411 
L 206.216134 55.822411 
L 203.064148 55.822411 
L 199.912162 55.822411 
L 196.760177 55.822411 
L 193.608191 54.144 
L 190.456205 54.144 
L 187.304219 54.144 
L 184.152233 54.144 
L 181.000247 54.144 
L 177.848261 54.144 
L 174.696275 55.822411 
L 171.544289 55.822411 
L 168.392304 55.822411 
L 165.240318 55.822411 
L 162.088332 55.822411 
L 158.936346 55.822411 
L 155.78436 55.822411 
L 152.632374 55.822411 
L 149.480388 55.822411 
L 146.328402 55.822411 
L 143.176417 55.822411 
L 140.024431 55.822411 
L 136.872445 55.822411 
L 133.720459 55.822411 
L 130.568473 55.822411 
L 127.416487 55.822411 
L 124.264501 55.822411 
L 121.112515 55.822411 
L 117.96053 55.822411 
L 114.808544 55.822411 
L 111.656558 55.822411 
L 108.504572 55.822411 
L 105.352586 55.822411 
L 102.2006 55.822411 
L 99.048614 55.822411 
L 95.896628 55.822411 
L 92.744643 55.822411 
L 89.592657 55.822411 
L 86.440671 55.822411 
L 83.288685 55.822411 
L 80.136699 55.822411 
L 76.984713 55.822411 
L 73.832727 55.822411 
z
" style="fill:#7f7f7f;"/>
   </g>
   <g id="PolyCollection_9">
    <path clip-path="url(#p6b4b6a858a)" d="M 73.832727 55.822411 
L 73.832727 55.822411 
L 76.984713 55.822411 
L 80.136699 55.822411 
L 83.288685 55.822411 
L 86.440671 55.822411 
L 89.592657 55.822411 
L 92.744643 55.822411 
L 95.896628 55.822411 
L 99.048614 55.822411 
L 102.2006 55.822411 
L 105.352586 55.822411 
L 108.504572 55.822411 
L 111.656558 55.822411 
L 114.808544 55.822411 
L 117.96053 55.822411 
L 121.112515 55.822411 
L 124.264501 55.822411 
L 127.416487 55.822411 
L 130.568473 55.822411 
L 133.720459 55.822411 
L 136.872445 55.822411 
L 140.024431 55.822411 
L 143.176417 55.822411 
L 146.328402 55.822411 
L 149.480388 55.822411 
L 152.632374 55.822411 
L 155.78436 55.822411 
L 158.936346 55.822411 
L 162.088332 55.822411 
L 165.240318 55.822411 
L 168.392304 55.822411 
L 171.544289 55.822411 
L 174.696275 55.822411 
L 177.848261 54.144 
L 181.000247 54.144 
L 184.152233 54.144 
L 187.304219 54.144 
L 190.456205 54.144 
L 193.608191 54.144 
L 196.760177 55.822411 
L 199.912162 55.822411 
L 203.064148 55.822411 
L 206.216134 55.822411 
L 209.36812 55.822411 
L 212.520106 54.144 
L 215.672092 55.822411 
L 218.824078 55.822411 
L 221.976064 55.822411 
L 225.128049 57.500821 
L 228.280035 55.822411 
L 231.432021 55.822411 
L 234.584007 54.144 
L 237.735993 54.144 
L 240.887979 55.822411 
L 244.039965 55.822411 
L 247.191951 54.144 
L 250.343936 55.822411 
L 253.495922 57.500821 
L 256.647908 54.144 
L 259.799894 54.144 
L 262.95188 54.144 
L 266.103866 54.144 
L 269.255852 57.500821 
L 272.407838 55.822411 
L 275.559823 55.822411 
L 278.711809 54.144 
L 281.863795 55.822411 
L 285.015781 55.822411 
L 288.167767 55.822411 
L 291.319753 55.822411 
L 294.471739 57.500821 
L 297.623725 57.500821 
L 300.775711 55.822411 
L 303.927696 55.822411 
L 307.079682 55.822411 
L 310.231668 54.144 
L 313.383654 57.500821 
L 316.53564 55.822411 
L 319.687626 57.500821 
L 322.839612 54.144 
L 325.991598 55.822411 
L 329.143583 55.822411 
L 332.295569 55.822411 
L 335.447555 55.822411 
L 338.599541 55.822411 
L 341.751527 54.144 
L 344.903513 54.144 
L 348.055499 55.822411 
L 351.207485 55.822411 
L 354.35947 57.500821 
L 357.511456 54.144 
L 360.663442 55.822411 
L 363.815428 55.822411 
L 366.967414 54.144 
L 370.1194 55.822411 
L 373.271386 55.822411 
L 376.423372 57.500821 
L 379.575357 57.500821 
L 382.727343 55.822411 
L 385.879329 54.144 
L 389.031315 54.144 
L 392.183301 59.179232 
L 395.335287 77.641748 
L 398.487273 97.782675 
L 398.487273 67.571285 
L 398.487273 67.571285 
L 395.335287 59.179232 
L 392.183301 54.144 
L 389.031315 54.144 
L 385.879329 54.144 
L 382.727343 55.822411 
L 379.575357 57.500821 
L 376.423372 57.500821 
L 373.271386 55.822411 
L 370.1194 55.822411 
L 366.967414 54.144 
L 363.815428 55.822411 
L 360.663442 55.822411 
L 357.511456 54.144 
L 354.35947 57.500821 
L 351.207485 55.822411 
L 348.055499 55.822411 
L 344.903513 54.144 
L 341.751527 54.144 
L 338.599541 55.822411 
L 335.447555 55.822411 
L 332.295569 55.822411 
L 329.143583 55.822411 
L 325.991598 55.822411 
L 322.839612 54.144 
L 319.687626 57.500821 
L 316.53564 55.822411 
L 313.383654 57.500821 
L 310.231668 54.144 
L 307.079682 55.822411 
L 303.927696 55.822411 
L 300.775711 55.822411 
L 297.623725 57.500821 
L 294.471739 57.500821 
L 291.319753 55.822411 
L 288.167767 55.822411 
L 285.015781 55.822411 
L 281.863795 55.822411 
L 278.711809 54.144 
L 275.559823 55.822411 
L 272.407838 55.822411 
L 269.255852 57.500821 
L 266.103866 54.144 
L 262.95188 54.144 
L 259.799894 54.144 
L 256.647908 54.144 
L 253.495922 57.500821 
L 250.343936 55.822411 
L 247.191951 54.144 
L 244.039965 55.822411 
L 240.887979 55.822411 
L 237.735993 54.144 
L 234.584007 54.144 
L 231.432021 55.822411 
L 228.280035 55.822411 
L 225.128049 57.500821 
L 221.976064 55.822411 
L 218.824078 55.822411 
L 215.672092 55.822411 
L 212.520106 54.144 
L 209.36812 55.822411 
L 206.216134 55.822411 
L 203.064148 55.822411 
L 199.912162 55.822411 
L 196.760177 55.822411 
L 193.608191 54.144 
L 190.456205 54.144 
L 187.304219 54.144 
L 184.152233 54.144 
L 181.000247 54.144 
L 177.848261 54.144 
L 174.696275 55.822411 
L 171.544289 55.822411 
L 168.392304 55.822411 
L 165.240318 55.822411 
L 162.088332 55.822411 
L 158.936346 55.822411 
L 155.78436 55.822411 
L 152.632374 55.822411 
L 149.480388 55.822411 
L 146.328402 55.822411 
L 143.176417 55.822411 
L 140.024431 55.822411 
L 136.872445 55.822411 
L 133.720459 55.822411 
L 130.568473 55.822411 
L 127.416487 55.822411 
L 124.264501 55.822411 
L 121.112515 55.822411 
L 117.96053 55.822411 
L 114.808544 55.822411 
L 111.656558 55.822411 
L 108.504572 55.822411 
L 105.352586 55.822411 
L 102.2006 55.822411 
L 99.048614 55.822411 
L 95.896628 55.822411 
L 92.744643 55.822411 
L 89.592657 55.822411 
L 86.440671 55.822411 
L 83.288685 55.822411 
L 80.136699 55.822411 
L 76.984713 55.822411 
L 73.832727 55.822411 
z
" style="fill:#bcbd22;"/>
   </g>
   <g id="PolyCollection_10">
    <path clip-path="url(#p6b4b6a858a)" d="M 73.832727 55.822411 
L 73.832727 55.822411 
L 76.984713 55.822411 
L 80.136699 55.822411 
L 83.288685 55.822411 
L 86.440671 55.822411 
L 89.592657 55.822411 
L 92.744643 55.822411 
L 95.896628 55.822411 
L 99.048614 55.822411 
L 102.2006 55.822411 
L 105.352586 55.822411 
L 108.504572 55.822411 
L 111.656558 55.822411 
L 114.808544 55.822411 
L 117.96053 55.822411 
L 121.112515 55.822411 
L 124.264501 55.822411 
L 127.416487 55.822411 
L 130.568473 55.822411 
L 133.720459 55.822411 
L 136.872445 55.822411 
L 140.024431 55.822411 
L 143.176417 55.822411 
L 146.328402 55.822411 
L 149.480388 55.822411 
L 152.632374 55.822411 
L 155.78436 55.822411 
L 158.936346 55.822411 
L 162.088332 55.822411 
L 165.240318 55.822411 
L 168.392304 55.822411 
L 171.544289 55.822411 
L 174.696275 55.822411 
L 177.848261 54.144 
L 181.000247 54.144 
L 184.152233 54.144 
L 187.304219 54.144 
L 190.456205 54.144 
L 193.608191 54.144 
L 196.760177 55.822411 
L 199.912162 55.822411 
L 203.064148 55.822411 
L 206.216134 55.822411 
L 209.36812 55.822411 
L 212.520106 54.144 
L 215.672092 55.822411 
L 218.824078 55.822411 
L 221.976064 55.822411 
L 225.128049 57.500821 
L 228.280035 55.822411 
L 231.432021 55.822411 
L 234.584007 54.144 
L 237.735993 54.144 
L 240.887979 55.822411 
L 244.039965 55.822411 
L 247.191951 54.144 
L 250.343936 55.822411 
L 253.495922 57.500821 
L 256.647908 54.144 
L 259.799894 54.144 
L 262.95188 54.144 
L 266.103866 54.144 
L 269.255852 57.500821 
L 272.407838 55.822411 
L 275.559823 55.822411 
L 278.711809 54.144 
L 281.863795 55.822411 
L 285.015781 55.822411 
L 288.167767 55.822411 
L 291.319753 55.822411 
L 294.471739 57.500821 
L 297.623725 57.500821 
L 300.775711 55.822411 
L 303.927696 55.822411 
L 307.079682 55.822411 
L 310.231668 54.144 
L 313.383654 57.500821 
L 316.53564 55.822411 
L 319.687626 57.500821 
L 322.839612 54.144 
L 325.991598 55.822411 
L 329.143583 55.822411 
L 332.295569 55.822411 
L 335.447555 55.822411 
L 338.599541 55.822411 
L 341.751527 54.144 
L 344.903513 54.144 
L 348.055499 55.822411 
L 351.207485 55.822411 
L 354.35947 57.500821 
L 357.511456 54.144 
L 360.663442 55.822411 
L 363.815428 55.822411 
L 366.967414 54.144 
L 370.1194 55.822411 
L 373.271386 55.822411 
L 376.423372 57.500821 
L 379.575357 57.500821 
L 382.727343 55.822411 
L 385.879329 54.144 
L 389.031315 54.144 
L 392.183301 54.144 
L 395.335287 59.179232 
L 398.487273 67.571285 
L 398.487273 55.822411 
L 398.487273 55.822411 
L 395.335287 55.822411 
L 392.183301 54.144 
L 389.031315 54.144 
L 385.879329 54.144 
L 382.727343 55.822411 
L 379.575357 57.500821 
L 376.423372 57.500821 
L 373.271386 55.822411 
L 370.1194 55.822411 
L 366.967414 54.144 
L 363.815428 55.822411 
L 360.663442 55.822411 
L 357.511456 54.144 
L 354.35947 57.500821 
L 351.207485 55.822411 
L 348.055499 55.822411 
L 344.903513 54.144 
L 341.751527 54.144 
L 338.599541 55.822411 
L 335.447555 55.822411 
L 332.295569 55.822411 
L 329.143583 55.822411 
L 325.991598 55.822411 
L 322.839612 54.144 
L 319.687626 57.500821 
L 316.53564 55.822411 
L 313.383654 57.500821 
L 310.231668 54.144 
L 307.079682 55.822411 
L 303.927696 55.822411 
L 300.775711 55.822411 
L 297.623725 57.500821 
L 294.471739 57.500821 
L 291.319753 55.822411 
L 288.167767 55.822411 
L 285.015781 55.822411 
L 281.863795 55.822411 
L 278.711809 54.144 
L 275.559823 55.822411 
L 272.407838 55.822411 
L 269.255852 57.500821 
L 266.103866 54.144 
L 262.95188 54.144 
L 259.799894 54.144 
L 256.647908 54.144 
L 253.495922 57.500821 
L 250.343936 55.822411 
L 247.191951 54.144 
L 244.039965 55.822411 
L 240.887979 55.822411 
L 237.735993 54.144 
L 234.584007 54.144 
L 231.432021 55.822411 
L 228.280035 55.822411 
L 225.128049 57.500821 
L 221.976064 55.822411 
L 218.824078 55.822411 
L 215.672092 55.822411 
L 212.520106 54.144 
L 209.36812 55.822411 
L 206.216134 55.822411 
L 203.064148 55.822411 
L 199.912162 55.822411 
L 196.760177 55.822411 
L 193.608191 54.144 
L 190.456205 54.144 
L 187.304219 54.144 
L 184.152233 54.144 
L 181.000247 54.144 
L 177.848261 54.144 
L 174.696275 55.822411 
L 171.544289 55.822411 
L 168.392304 55.822411 
L 165.240318 55.822411 
L 162.088332 55.822411 
L 158.936346 55.822411 
L 155.78436 55.822411 
L 152.632374 55.822411 
L 149.480388 55.822411 
L 146.328402 55.822411 
L 143.176417 55.822411 
L 140.024431 55.822411 
L 136.872445 55.822411 
L 133.720459 55.822411 
L 130.568473 55.822411 
L 127.416487 55.822411 
L 124.264501 55.822411 
L 121.112515 55.822411 
L 117.96053 55.822411 
L 114.808544 55.822411 
L 111.656558 55.822411 
L 108.504572 55.822411 
L 105.352586 55.822411 
L 102.2006 55.822411 
L 99.048614 55.822411 
L 95.896628 55.822411 
L 92.744643 55.822411 
L 89.592657 55.822411 
L 86.440671 55.822411 
L 83.288685 55.822411 
L 80.136699 55.822411 
L 76.984713 55.822411 
L 73.832727 55.822411 
z
" style="fill:#17becf;"/>
   </g>
   <g id="matplotlib.axis_1">
    <g id="xtick_1">
     <g id="line2d_1">
      <defs>
       <path d="M 0 0 
L 0 3.5 
" id="m745a6f9b14" style="stroke:#000000;stroke-width:0.8;"/>
      </defs>
      <g>
       <use style="stroke:#000000;stroke-width:0.8;" x="73.832727" xlink:href="#m745a6f9b14" y="307.584"/>
      </g>
     </g>
     <g id="text_1">
      <!-- 0 -->
      <defs>
       <path d="M 31.78125 66.40625 
Q 24.171875 66.40625 20.328125 58.90625 
Q 16.5 51.421875 16.5 36.375 
Q 16.5 21.390625 20.328125 13.890625 
Q 24.171875 6.390625 31.78125 6.390625 
Q 39.453125 6.390625 43.28125 13.890625 
Q 47.125 21.390625 47.125 36.375 
Q 47.125 51.421875 43.28125 58.90625 
Q 39.453125 66.40625 31.78125 66.40625 
z
M 31.78125 74.21875 
Q 44.046875 74.21875 50.515625 64.515625 
Q 56.984375 54.828125 56.984375 36.375 
Q 56.984375 17.96875 50.515625 8.265625 
Q 44.046875 -1.421875 31.78125 -1.421875 
Q 19.53125 -1.421875 13.0625 8.265625 
Q 6.59375 17.96875 6.59375 36.375 
Q 6.59375 54.828125 13.0625 64.515625 
Q 19.53125 74.21875 31.78125 74.21875 
z
" id="DejaVuSans-30"/>
      </defs>
      <g transform="translate(70.651477 322.182437)scale(0.1 -0.1)">
       <use xlink:href="#DejaVuSans-30"/>
      </g>
     </g>
    </g>
    <g id="xtick_2">
     <g id="line2d_2">
      <g>
       <use style="stroke:#000000;stroke-width:0.8;" x="136.872445" xlink:href="#m745a6f9b14" y="307.584"/>
      </g>
     </g>
     <g id="text_2">
      <!-- 20 -->
      <defs>
       <path d="M 19.1875 8.296875 
L 53.609375 8.296875 
L 53.609375 0 
L 7.328125 0 
L 7.328125 8.296875 
Q 12.9375 14.109375 22.625 23.890625 
Q 32.328125 33.6875 34.8125 36.53125 
Q 39.546875 41.84375 41.421875 45.53125 
Q 43.3125 49.21875 43.3125 52.78125 
Q 43.3125 58.59375 39.234375 62.25 
Q 35.15625 65.921875 28.609375 65.921875 
Q 23.96875 65.921875 18.8125 64.3125 
Q 13.671875 62.703125 7.8125 59.421875 
L 7.8125 69.390625 
Q 13.765625 71.78125 18.9375 73 
Q 24.125 74.21875 28.421875 74.21875 
Q 39.75 74.21875 46.484375 68.546875 
Q 53.21875 62.890625 53.21875 53.421875 
Q 53.21875 48.921875 51.53125 44.890625 
Q 49.859375 40.875 45.40625 35.40625 
Q 44.1875 33.984375 37.640625 27.21875 
Q 31.109375 20.453125 19.1875 8.296875 
z
" id="DejaVuSans-32"/>
      </defs>
      <g transform="translate(130.509945 322.182437)scale(0.1 -0.1)">
       <use xlink:href="#DejaVuSans-32"/>
       <use x="63.623047" xlink:href="#DejaVuSans-30"/>
      </g>
     </g>
    </g>
    <g id="xtick_3">
     <g id="line2d_3">
      <g>
       <use style="stroke:#000000;stroke-width:0.8;" x="199.912162" xlink:href="#m745a6f9b14" y="307.584"/>
      </g>
     </g>
     <g id="text_3">
      <!-- 40 -->
      <defs>
       <path d="M 37.796875 64.3125 
L 12.890625 25.390625 
L 37.796875 25.390625 
z
M 35.203125 72.90625 
L 47.609375 72.90625 
L 47.609375 25.390625 
L 58.015625 25.390625 
L 58.015625 17.1875 
L 47.609375 17.1875 
L 47.609375 0 
L 37.796875 0 
L 37.796875 17.1875 
L 4.890625 17.1875 
L 4.890625 26.703125 
z
" id="DejaVuSans-34"/>
      </defs>
      <g transform="translate(193.549662 322.182437)scale(0.1 -0.1)">
       <use xlink:href="#DejaVuSans-34"/>
       <use x="63.623047" xlink:href="#DejaVuSans-30"/>
      </g>
     </g>
    </g>
    <g id="xtick_4">
     <g id="line2d_4">
      <g>
       <use style="stroke:#000000;stroke-width:0.8;" x="262.95188" xlink:href="#m745a6f9b14" y="307.584"/>
      </g>
     </g>
     <g id="text_4">
      <!-- 60 -->
      <defs>
       <path d="M 33.015625 40.375 
Q 26.375 40.375 22.484375 35.828125 
Q 18.609375 31.296875 18.609375 23.390625 
Q 18.609375 15.53125 22.484375 10.953125 
Q 26.375 6.390625 33.015625 6.390625 
Q 39.65625 6.390625 43.53125 10.953125 
Q 47.40625 15.53125 47.40625 23.390625 
Q 47.40625 31.296875 43.53125 35.828125 
Q 39.65625 40.375 33.015625 40.375 
z
M 52.59375 71.296875 
L 52.59375 62.3125 
Q 48.875 64.0625 45.09375 64.984375 
Q 41.3125 65.921875 37.59375 65.921875 
Q 27.828125 65.921875 22.671875 59.328125 
Q 17.53125 52.734375 16.796875 39.40625 
Q 19.671875 43.65625 24.015625 45.921875 
Q 28.375 48.1875 33.59375 48.1875 
Q 44.578125 48.1875 50.953125 41.515625 
Q 57.328125 34.859375 57.328125 23.390625 
Q 57.328125 12.15625 50.6875 5.359375 
Q 44.046875 -1.421875 33.015625 -1.421875 
Q 20.359375 -1.421875 13.671875 8.265625 
Q 6.984375 17.96875 6.984375 36.375 
Q 6.984375 53.65625 15.1875 63.9375 
Q 23.390625 74.21875 37.203125 74.21875 
Q 40.921875 74.21875 44.703125 73.484375 
Q 48.484375 72.75 52.59375 71.296875 
z
" id="DejaVuSans-36"/>
      </defs>
      <g transform="translate(256.58938 322.182437)scale(0.1 -0.1)">
       <use xlink:href="#DejaVuSans-36"/>
       <use x="63.623047" xlink:href="#DejaVuSans-30"/>
      </g>
     </g>
    </g>
    <g id="xtick_5">
     <g id="line2d_5">
      <g>
       <use style="stroke:#000000;stroke-width:0.8;" x="325.991598" xlink:href="#m745a6f9b14" y="307.584"/>
      </g>
     </g>
     <g id="text_5">
      <!-- 80 -->
      <defs>
       <path d="M 31.78125 34.625 
Q 24.75 34.625 20.71875 30.859375 
Q 16.703125 27.09375 16.703125 20.515625 
Q 16.703125 13.921875 20.71875 10.15625 
Q 24.75 6.390625 31.78125 6.390625 
Q 38.8125 6.390625 42.859375 10.171875 
Q 46.921875 13.96875 46.921875 20.515625 
Q 46.921875 27.09375 42.890625 30.859375 
Q 38.875 34.625 31.78125 34.625 
z
M 21.921875 38.8125 
Q 15.578125 40.375 12.03125 44.71875 
Q 8.5 49.078125 8.5 55.328125 
Q 8.5 64.0625 14.71875 69.140625 
Q 20.953125 74.21875 31.78125 74.21875 
Q 42.671875 74.21875 48.875 69.140625 
Q 55.078125 64.0625 55.078125 55.328125 
Q 55.078125 49.078125 51.53125 44.71875 
Q 48 40.375 41.703125 38.8125 
Q 48.828125 37.15625 52.796875 32.3125 
Q 56.78125 27.484375 56.78125 20.515625 
Q 56.78125 9.90625 50.3125 4.234375 
Q 43.84375 -1.421875 31.78125 -1.421875 
Q 19.734375 -1.421875 13.25 4.234375 
Q 6.78125 9.90625 6.78125 20.515625 
Q 6.78125 27.484375 10.78125 32.3125 
Q 14.796875 37.15625 21.921875 38.8125 
z
M 18.3125 54.390625 
Q 18.3125 48.734375 21.84375 45.5625 
Q 25.390625 42.390625 31.78125 42.390625 
Q 38.140625 42.390625 41.71875 45.5625 
Q 45.3125 48.734375 45.3125 54.390625 
Q 45.3125 60.0625 41.71875 63.234375 
Q 38.140625 66.40625 31.78125 66.40625 
Q 25.390625 66.40625 21.84375 63.234375 
Q 18.3125 60.0625 18.3125 54.390625 
z
" id="DejaVuSans-38"/>
      </defs>
      <g transform="translate(319.629098 322.182437)scale(0.1 -0.1)">
       <use xlink:href="#DejaVuSans-38"/>
       <use x="63.623047" xlink:href="#DejaVuSans-30"/>
      </g>
     </g>
    </g>
    <g id="xtick_6">
     <g id="line2d_6">
      <g>
       <use style="stroke:#000000;stroke-width:0.8;" x="389.031315" xlink:href="#m745a6f9b14" y="307.584"/>
      </g>
     </g>
     <g id="text_6">
      <!-- 100 -->
      <defs>
       <path d="M 12.40625 8.296875 
L 28.515625 8.296875 
L 28.515625 63.921875 
L 10.984375 60.40625 
L 10.984375 69.390625 
L 28.421875 72.90625 
L 38.28125 72.90625 
L 38.28125 8.296875 
L 54.390625 8.296875 
L 54.390625 0 
L 12.40625 0 
z
" id="DejaVuSans-31"/>
      </defs>
      <g transform="translate(379.487565 322.182437)scale(0.1 -0.1)">
       <use xlink:href="#DejaVuSans-31"/>
       <use x="63.623047" xlink:href="#DejaVuSans-30"/>
       <use x="127.246094" xlink:href="#DejaVuSans-30"/>
      </g>
     </g>
    </g>
    <g id="text_7">
     <!-- Generations -->
     <defs>
      <path d="M 59.515625 10.40625 
L 59.515625 29.984375 
L 43.40625 29.984375 
L 43.40625 38.09375 
L 69.28125 38.09375 
L 69.28125 6.78125 
Q 63.578125 2.734375 56.6875 0.65625 
Q 49.8125 -1.421875 42 -1.421875 
Q 24.90625 -1.421875 15.25 8.5625 
Q 5.609375 18.5625 5.609375 36.375 
Q 5.609375 54.25 15.25 64.234375 
Q 24.90625 74.21875 42 74.21875 
Q 49.125 74.21875 55.546875 72.453125 
Q 61.96875 70.703125 67.390625 67.28125 
L 67.390625 56.78125 
Q 61.921875 61.421875 55.765625 63.765625 
Q 49.609375 66.109375 42.828125 66.109375 
Q 29.4375 66.109375 22.71875 58.640625 
Q 16.015625 51.171875 16.015625 36.375 
Q 16.015625 21.625 22.71875 14.15625 
Q 29.4375 6.6875 42.828125 6.6875 
Q 48.046875 6.6875 52.140625 7.59375 
Q 56.25 8.5 59.515625 10.40625 
z
" id="DejaVuSans-47"/>
      <path d="M 56.203125 29.59375 
L 56.203125 25.203125 
L 14.890625 25.203125 
Q 15.484375 15.921875 20.484375 11.0625 
Q 25.484375 6.203125 34.421875 6.203125 
Q 39.59375 6.203125 44.453125 7.46875 
Q 49.3125 8.734375 54.109375 11.28125 
L 54.109375 2.78125 
Q 49.265625 0.734375 44.1875 -0.34375 
Q 39.109375 -1.421875 33.890625 -1.421875 
Q 20.796875 -1.421875 13.15625 6.1875 
Q 5.515625 13.8125 5.515625 26.8125 
Q 5.515625 40.234375 12.765625 48.109375 
Q 20.015625 56 32.328125 56 
Q 43.359375 56 49.78125 48.890625 
Q 56.203125 41.796875 56.203125 29.59375 
z
M 47.21875 32.234375 
Q 47.125 39.59375 43.09375 43.984375 
Q 39.0625 48.390625 32.421875 48.390625 
Q 24.90625 48.390625 20.390625 44.140625 
Q 15.875 39.890625 15.1875 32.171875 
z
" id="DejaVuSans-65"/>
      <path d="M 54.890625 33.015625 
L 54.890625 0 
L 45.90625 0 
L 45.90625 32.71875 
Q 45.90625 40.484375 42.875 44.328125 
Q 39.84375 48.1875 33.796875 48.1875 
Q 26.515625 48.1875 22.3125 43.546875 
Q 18.109375 38.921875 18.109375 30.90625 
L 18.109375 0 
L 9.078125 0 
L 9.078125 54.6875 
L 18.109375 54.6875 
L 18.109375 46.1875 
Q 21.34375 51.125 25.703125 53.5625 
Q 30.078125 56 35.796875 56 
Q 45.21875 56 50.046875 50.171875 
Q 54.890625 44.34375 54.890625 33.015625 
z
" id="DejaVuSans-6e"/>
      <path d="M 41.109375 46.296875 
Q 39.59375 47.171875 37.8125 47.578125 
Q 36.03125 48 33.890625 48 
Q 26.265625 48 22.1875 43.046875 
Q 18.109375 38.09375 18.109375 28.8125 
L 18.109375 0 
L 9.078125 0 
L 9.078125 54.6875 
L 18.109375 54.6875 
L 18.109375 46.1875 
Q 20.953125 51.171875 25.484375 53.578125 
Q 30.03125 56 36.53125 56 
Q 37.453125 56 38.578125 55.875 
Q 39.703125 55.765625 41.0625 55.515625 
z
" id="DejaVuSans-72"/>
      <path d="M 34.28125 27.484375 
Q 23.390625 27.484375 19.1875 25 
Q 14.984375 22.515625 14.984375 16.5 
Q 14.984375 11.71875 18.140625 8.90625 
Q 21.296875 6.109375 26.703125 6.109375 
Q 34.1875 6.109375 38.703125 11.40625 
Q 43.21875 16.703125 43.21875 25.484375 
L 43.21875 27.484375 
z
M 52.203125 31.203125 
L 52.203125 0 
L 43.21875 0 
L 43.21875 8.296875 
Q 40.140625 3.328125 35.546875 0.953125 
Q 30.953125 -1.421875 24.3125 -1.421875 
Q 15.921875 -1.421875 10.953125 3.296875 
Q 6 8.015625 6 15.921875 
Q 6 25.140625 12.171875 29.828125 
Q 18.359375 34.515625 30.609375 34.515625 
L 43.21875 34.515625 
L 43.21875 35.40625 
Q 43.21875 41.609375 39.140625 45 
Q 35.0625 48.390625 27.6875 48.390625 
Q 23 48.390625 18.546875 47.265625 
Q 14.109375 46.140625 10.015625 43.890625 
L 10.015625 52.203125 
Q 14.9375 54.109375 19.578125 55.046875 
Q 24.21875 56 28.609375 56 
Q 40.484375 56 46.34375 49.84375 
Q 52.203125 43.703125 52.203125 31.203125 
z
" id="DejaVuSans-61"/>
      <path d="M 18.3125 70.21875 
L 18.3125 54.6875 
L 36.8125 54.6875 
L 36.8125 47.703125 
L 18.3125 47.703125 
L 18.3125 18.015625 
Q 18.3125 11.328125 20.140625 9.421875 
Q 21.96875 7.515625 27.59375 7.515625 
L 36.8125 7.515625 
L 36.8125 0 
L 27.59375 0 
Q 17.1875 0 13.234375 3.875 
Q 9.28125 7.765625 9.28125 18.015625 
L 9.28125 47.703125 
L 2.6875 47.703125 
L 2.6875 54.6875 
L 9.28125 54.6875 
L 9.28125 70.21875 
z
" id="DejaVuSans-74"/>
      <path d="M 9.421875 54.6875 
L 18.40625 54.6875 
L 18.40625 0 
L 9.421875 0 
z
M 9.421875 75.984375 
L 18.40625 75.984375 
L 18.40625 64.59375 
L 9.421875 64.59375 
z
" id="DejaVuSans-69"/>
      <path d="M 30.609375 48.390625 
Q 23.390625 48.390625 19.1875 42.75 
Q 14.984375 37.109375 14.984375 27.296875 
Q 14.984375 17.484375 19.15625 11.84375 
Q 23.34375 6.203125 30.609375 6.203125 
Q 37.796875 6.203125 41.984375 11.859375 
Q 46.1875 17.53125 46.1875 27.296875 
Q 46.1875 37.015625 41.984375 42.703125 
Q 37.796875 48.390625 30.609375 48.390625 
z
M 30.609375 56 
Q 42.328125 56 49.015625 48.375 
Q 55.71875 40.765625 55.71875 27.296875 
Q 55.71875 13.875 49.015625 6.21875 
Q 42.328125 -1.421875 30.609375 -1.421875 
Q 18.84375 -1.421875 12.171875 6.21875 
Q 5.515625 13.875 5.515625 27.296875 
Q 5.515625 40.765625 12.171875 48.375 
Q 18.84375 56 30.609375 56 
z
" id="DejaVuSans-6f"/>
      <path d="M 44.28125 53.078125 
L 44.28125 44.578125 
Q 40.484375 46.53125 36.375 47.5 
Q 32.28125 48.484375 27.875 48.484375 
Q 21.1875 48.484375 17.84375 46.4375 
Q 14.5 44.390625 14.5 40.28125 
Q 14.5 37.15625 16.890625 35.375 
Q 19.28125 33.59375 26.515625 31.984375 
L 29.59375 31.296875 
Q 39.15625 29.25 43.1875 25.515625 
Q 47.21875 21.78125 47.21875 15.09375 
Q 47.21875 7.46875 41.1875 3.015625 
Q 35.15625 -1.421875 24.609375 -1.421875 
Q 20.21875 -1.421875 15.453125 -0.5625 
Q 10.6875 0.296875 5.421875 2 
L 5.421875 11.28125 
Q 10.40625 8.6875 15.234375 7.390625 
Q 20.0625 6.109375 24.8125 6.109375 
Q 31.15625 6.109375 34.5625 8.28125 
Q 37.984375 10.453125 37.984375 14.40625 
Q 37.984375 18.0625 35.515625 20.015625 
Q 33.0625 21.96875 24.703125 23.78125 
L 21.578125 24.515625 
Q 13.234375 26.265625 9.515625 29.90625 
Q 5.8125 33.546875 5.8125 39.890625 
Q 5.8125 47.609375 11.28125 51.796875 
Q 16.75 56 26.8125 56 
Q 31.78125 56 36.171875 55.265625 
Q 40.578125 54.546875 44.28125 53.078125 
z
" id="DejaVuSans-73"/>
     </defs>
     <g transform="translate(205.662344 335.860562)scale(0.1 -0.1)">
      <use xlink:href="#DejaVuSans-47"/>
      <use x="77.490234" xlink:href="#DejaVuSans-65"/>
      <use x="139.013672" xlink:href="#DejaVuSans-6e"/>
      <use x="202.392578" xlink:href="#DejaVuSans-65"/>
      <use x="263.916016" xlink:href="#DejaVuSans-72"/>
      <use x="305.029297" xlink:href="#DejaVuSans-61"/>
      <use x="366.308594" xlink:href="#DejaVuSans-74"/>
      <use x="405.517578" xlink:href="#DejaVuSans-69"/>
      <use x="433.300781" xlink:href="#DejaVuSans-6f"/>
      <use x="494.482422" xlink:href="#DejaVuSans-6e"/>
      <use x="557.861328" xlink:href="#DejaVuSans-73"/>
     </g>
    </g>
   </g>
   <g id="matplotlib.axis_2">
    <g id="ytick_1">
     <g id="line2d_7">
      <defs>
       <path d="M 0 0 
L -3.5 0 
" id="m6a494ab57f" style="stroke:#000000;stroke-width:0.8;"/>
      </defs>
      <g>
       <use style="stroke:#000000;stroke-width:0.8;" x="57.6" xlink:href="#m6a494ab57f" y="307.584"/>
      </g>
     </g>
     <g id="text_8">
      <!-- 0 -->
      <g transform="translate(44.2375 311.383219)scale(0.1 -0.1)">
       <use xlink:href="#DejaVuSans-30"/>
      </g>
     </g>
    </g>
    <g id="ytick_2">
     <g id="line2d_8">
      <g>
       <use style="stroke:#000000;stroke-width:0.8;" x="57.6" xlink:href="#m6a494ab57f" y="274.015788"/>
      </g>
     </g>
     <g id="text_9">
      <!-- 20 -->
      <g transform="translate(37.875 277.815007)scale(0.1 -0.1)">
       <use xlink:href="#DejaVuSans-32"/>
       <use x="63.623047" xlink:href="#DejaVuSans-30"/>
      </g>
     </g>
    </g>
    <g id="ytick_3">
     <g id="line2d_9">
      <g>
       <use style="stroke:#000000;stroke-width:0.8;" x="57.6" xlink:href="#m6a494ab57f" y="240.447576"/>
      </g>
     </g>
     <g id="text_10">
      <!-- 40 -->
      <g transform="translate(37.875 244.246795)scale(0.1 -0.1)">
       <use xlink:href="#DejaVuSans-34"/>
       <use x="63.623047" xlink:href="#DejaVuSans-30"/>
      </g>
     </g>
    </g>
    <g id="ytick_4">
     <g id="line2d_10">
      <g>
       <use style="stroke:#000000;stroke-width:0.8;" x="57.6" xlink:href="#m6a494ab57f" y="206.879364"/>
      </g>
     </g>
     <g id="text_11">
      <!-- 60 -->
      <g transform="translate(37.875 210.678583)scale(0.1 -0.1)">
       <use xlink:href="#DejaVuSans-36"/>
       <use x="63.623047" xlink:href="#DejaVuSans-30"/>
      </g>
     </g>
    </g>
    <g id="ytick_5">
     <g id="line2d_11">
      <g>
       <use style="stroke:#000000;stroke-width:0.8;" x="57.6" xlink:href="#m6a494ab57f" y="173.311152"/>
      </g>
     </g>
     <g id="text_12">
      <!-- 80 -->
      <g transform="translate(37.875 177.110371)scale(0.1 -0.1)">
       <use xlink:href="#DejaVuSans-38"/>
       <use x="63.623047" xlink:href="#DejaVuSans-30"/>
      </g>
     </g>
    </g>
    <g id="ytick_6">
     <g id="line2d_12">
      <g>
       <use style="stroke:#000000;stroke-width:0.8;" x="57.6" xlink:href="#m6a494ab57f" y="139.74294"/>
      </g>
     </g>
     <g id="text_13">
      <!-- 100 -->
      <g transform="translate(31.5125 143.542159)scale(0.1 -0.1)">
       <use xlink:href="#DejaVuSans-31"/>
       <use x="63.623047" xlink:href="#DejaVuSans-30"/>
       <use x="127.246094" xlink:href="#DejaVuSans-30"/>
      </g>
     </g>
    </g>
    <g id="ytick_7">
     <g id="line2d_13">
      <g>
       <use style="stroke:#000000;stroke-width:0.8;" x="57.6" xlink:href="#m6a494ab57f" y="106.174728"/>
      </g>
     </g>
     <g id="text_14">
      <!-- 120 -->
      <g transform="translate(31.5125 109.973947)scale(0.1 -0.1)">
       <use xlink:href="#DejaVuSans-31"/>
       <use x="63.623047" xlink:href="#DejaVuSans-32"/>
       <use x="127.246094" xlink:href="#DejaVuSans-30"/>
      </g>
     </g>
    </g>
    <g id="ytick_8">
     <g id="line2d_14">
      <g>
       <use style="stroke:#000000;stroke-width:0.8;" x="57.6" xlink:href="#m6a494ab57f" y="72.606517"/>
      </g>
     </g>
     <g id="text_15">
      <!-- 140 -->
      <g transform="translate(31.5125 76.405735)scale(0.1 -0.1)">
       <use xlink:href="#DejaVuSans-31"/>
       <use x="63.623047" xlink:href="#DejaVuSans-34"/>
       <use x="127.246094" xlink:href="#DejaVuSans-30"/>
      </g>
     </g>
    </g>
    <g id="text_16">
     <!-- Size per Species -->
     <defs>
      <path d="M 53.515625 70.515625 
L 53.515625 60.890625 
Q 47.90625 63.578125 42.921875 64.890625 
Q 37.9375 66.21875 33.296875 66.21875 
Q 25.25 66.21875 20.875 63.09375 
Q 16.5 59.96875 16.5 54.203125 
Q 16.5 49.359375 19.40625 46.890625 
Q 22.3125 44.4375 30.421875 42.921875 
L 36.375 41.703125 
Q 47.40625 39.59375 52.65625 34.296875 
Q 57.90625 29 57.90625 20.125 
Q 57.90625 9.515625 50.796875 4.046875 
Q 43.703125 -1.421875 29.984375 -1.421875 
Q 24.8125 -1.421875 18.96875 -0.25 
Q 13.140625 0.921875 6.890625 3.21875 
L 6.890625 13.375 
Q 12.890625 10.015625 18.65625 8.296875 
Q 24.421875 6.59375 29.984375 6.59375 
Q 38.421875 6.59375 43.015625 9.90625 
Q 47.609375 13.234375 47.609375 19.390625 
Q 47.609375 24.75 44.3125 27.78125 
Q 41.015625 30.8125 33.5 32.328125 
L 27.484375 33.5 
Q 16.453125 35.6875 11.515625 40.375 
Q 6.59375 45.0625 6.59375 53.421875 
Q 6.59375 63.09375 13.40625 68.65625 
Q 20.21875 74.21875 32.171875 74.21875 
Q 37.3125 74.21875 42.625 73.28125 
Q 47.953125 72.359375 53.515625 70.515625 
z
" id="DejaVuSans-53"/>
      <path d="M 5.515625 54.6875 
L 48.1875 54.6875 
L 48.1875 46.484375 
L 14.40625 7.171875 
L 48.1875 7.171875 
L 48.1875 0 
L 4.296875 0 
L 4.296875 8.203125 
L 38.09375 47.515625 
L 5.515625 47.515625 
z
" id="DejaVuSans-7a"/>
      <path id="DejaVuSans-20"/>
      <path d="M 18.109375 8.203125 
L 18.109375 -20.796875 
L 9.078125 -20.796875 
L 9.078125 54.6875 
L 18.109375 54.6875 
L 18.109375 46.390625 
Q 20.953125 51.265625 25.265625 53.625 
Q 29.59375 56 35.59375 56 
Q 45.5625 56 51.78125 48.09375 
Q 58.015625 40.1875 58.015625 27.296875 
Q 58.015625 14.40625 51.78125 6.484375 
Q 45.5625 -1.421875 35.59375 -1.421875 
Q 29.59375 -1.421875 25.265625 0.953125 
Q 20.953125 3.328125 18.109375 8.203125 
z
M 48.6875 27.296875 
Q 48.6875 37.203125 44.609375 42.84375 
Q 40.53125 48.484375 33.40625 48.484375 
Q 26.265625 48.484375 22.1875 42.84375 
Q 18.109375 37.203125 18.109375 27.296875 
Q 18.109375 17.390625 22.1875 11.75 
Q 26.265625 6.109375 33.40625 6.109375 
Q 40.53125 6.109375 44.609375 11.75 
Q 48.6875 17.390625 48.6875 27.296875 
z
" id="DejaVuSans-70"/>
      <path d="M 48.78125 52.59375 
L 48.78125 44.1875 
Q 44.96875 46.296875 41.140625 47.34375 
Q 37.3125 48.390625 33.40625 48.390625 
Q 24.65625 48.390625 19.8125 42.84375 
Q 14.984375 37.3125 14.984375 27.296875 
Q 14.984375 17.28125 19.8125 11.734375 
Q 24.65625 6.203125 33.40625 6.203125 
Q 37.3125 6.203125 41.140625 7.25 
Q 44.96875 8.296875 48.78125 10.40625 
L 48.78125 2.09375 
Q 45.015625 0.34375 40.984375 -0.53125 
Q 36.96875 -1.421875 32.421875 -1.421875 
Q 20.0625 -1.421875 12.78125 6.34375 
Q 5.515625 14.109375 5.515625 27.296875 
Q 5.515625 40.671875 12.859375 48.328125 
Q 20.21875 56 33.015625 56 
Q 37.15625 56 41.109375 55.140625 
Q 45.0625 54.296875 48.78125 52.59375 
z
" id="DejaVuSans-63"/>
     </defs>
     <g transform="translate(25.432812 215.520969)rotate(-90)scale(0.1 -0.1)">
      <use xlink:href="#DejaVuSans-53"/>
      <use x="63.476562" xlink:href="#DejaVuSans-69"/>
      <use x="91.259766" xlink:href="#DejaVuSans-7a"/>
      <use x="143.75" xlink:href="#DejaVuSans-65"/>
      <use x="205.273438" xlink:href="#DejaVuSans-20"/>
      <use x="237.060547" xlink:href="#DejaVuSans-70"/>
      <use x="300.537109" xlink:href="#DejaVuSans-65"/>
      <use x="362.060547" xlink:href="#DejaVuSans-72"/>
      <use x="403.173828" xlink:href="#DejaVuSans-20"/>
      <use x="434.960938" xlink:href="#DejaVuSans-53"/>
      <use x="498.4375" xlink:href="#DejaVuSans-70"/>
      <use x="561.914062" xlink:href="#DejaVuSans-65"/>
      <use x="623.4375" xlink:href="#DejaVuSans-63"/>
      <use x="678.417969" xlink:href="#DejaVuSans-69"/>
      <use x="706.201172" xlink:href="#DejaVuSans-65"/>
      <use x="767.724609" xlink:href="#DejaVuSans-73"/>
     </g>
    </g>
   </g>
   <g id="patch_3">
    <path d="M 57.6 307.584 
L 57.6 41.472 
" style="fill:none;stroke:#000000;stroke-linecap:square;stroke-linejoin:miter;stroke-width:0.8;"/>
   </g>
   <g id="patch_4">
    <path d="M 414.72 307.584 
L 414.72 41.472 
" style="fill:none;stroke:#000000;stroke-linecap:square;stroke-linejoin:miter;stroke-width:0.8;"/>
   </g>
   <g id="patch_5">
    <path d="M 57.6 307.584 
L 414.72 307.584 
" style="fill:none;stroke:#000000;stroke-linecap:square;stroke-linejoin:miter;stroke-width:0.8;"/>
   </g>
   <g id="patch_6">
    <path d="M 57.6 41.472 
L 414.72 41.472 
" style="fill:none;stroke:#000000;stroke-linecap:square;stroke-linejoin:miter;stroke-width:0.8;"/>
   </g>
   <g id="text_17">
    <!-- Speciation -->
    <g transform="translate(204.714375 35.472)scale(0.12 -0.12)">
     <use xlink:href="#DejaVuSans-53"/>
     <use x="63.476562" xlink:href="#DejaVuSans-70"/>
     <use x="126.953125" xlink:href="#DejaVuSans-65"/>
     <use x="188.476562" xlink:href="#DejaVuSans-63"/>
     <use x="243.457031" xlink:href="#DejaVuSans-69"/>
     <use x="271.240234" xlink:href="#DejaVuSans-61"/>
     <use x="332.519531" xlink:href="#DejaVuSans-74"/>
     <use x="371.728516" xlink:href="#DejaVuSans-69"/>
     <use x="399.511719" xlink:href="#DejaVuSans-6f"/>
     <use x="460.693359" xlink:href="#DejaVuSans-6e"/>
    </g>
   </g>
  </g>
 </g>
 <defs>
  <clipPath id="p6b4b6a858a">
   <rect height="266.112" width="357.12" x="57.6" y="41.472"/>
  </clipPath>
 </defs>
</svg>
